<svg xmlns="http://www.w3.org/2000/svg" viewBox="0 0 92 92" shape-rendering="crispEdges" style="image-rendering:pixelated;display:block"><rect x="12" y="44" width="4" height="4" fill="#F8F9FA"/><rect x="16" y="44" width="4" height="4" fill="#F8F9FA"/><rect x="20" y="44" width="4" height="4" fill="#F8F9FA"/><rect x="24" y="44" width="4" height="4" fill="#F8F9FA"/><rect x="28" y="44" width="4" height="4" fill="#F8F9FA"/><rect x="32" y="44" width="4" height="4" fill="#F8F9FA"/><rect x="36" y="44" width="4" height="4" fill="#F8F9FA"/><rect x="40" y="44" width="4" height="4" fill="#F8F9FA"/><rect x="8" y="48" width="4" height="4" fill="#F8F9FA"/><rect x="36" y="48" width="4" height="4" fill="#F8F9FA"/><rect x="44" y="48" width="4" height="4" fill="#F8F9FA"/><rect x="4" y="52" width="4" height="4" fill="#F8F9FA"/><rect x="32" y="52" width="4" height="4" fill="#F8F9FA"/><rect x="40" y="52" width="4" height="4" fill="#F8F9FA"/><rect x="44" y="52" width="4" height="4" fill="#F8F9FA"/><rect x="0" y="56" width="4" height="4" fill="#F8F9FA"/><rect x="4" y="56" width="4" height="4" fill="#F8F9FA"/><rect x="8" y="56" width="4" height="4" fill="#F8F9FA"/><rect x="12" y="56" width="4" height="4" fill="#F8F9FA"/><rect x="16" y="56" width="4" height="4" fill="#F8F9FA"/><rect x="20" y="56" width="4" height="4" fill="#F8F9FA"/><rect x="24" y="56" width="4" height="4" fill="#F8F9FA"/><rect x="28" y="56" width="4" height="4" fill="#F8F9FA"/><rect x="36" y="56" width="4" height="4" fill="#F8F9FA"/><rect x="44" y="56" width="4" height="4" fill="#F8F9FA"/><rect x="0" y="60" width="4" height="4" fill="#F8F9FA"/><rect x="4" y="60" width="4" height="4" fill="#F8F9FA"/><rect x="8" y="60" width="4" height="4" fill="#F8F9FA"/><rect x="12" y="60" width="4" height="4" fill="#F8F9FA"/><rect x="16" y="60" width="4" height="4" fill="#F8F9FA"/><rect x="20" y="60" width="4" height="4" fill="#F8F9FA"/><rect x="24" y="60" width="4" height="4" fill="#F8F9FA"/><rect x="28" y="60" width="4" height="4" fill="#F8F9FA"/><rect x="32" y="60" width="4" height="4" fill="#F8F9FA"/><rect x="44" y="60" width="4" height="4" fill="#F8F9FA"/><rect x="0" y="64" width="4" height="4" fill="#F8F9FA"/><rect x="28" y="64" width="4" height="4" fill="#F8F9FA"/><rect x="32" y="64" width="4" height="4" fill="#F8F9FA"/><rect x="44" y="64" width="4" height="4" fill="#F8F9FA"/><rect x="0" y="68" width="4" height="4" fill="#F8F9FA"/><rect x="28" y="68" width="4" height="4" fill="#F8F9FA"/><rect x="32" y="68" width="4" height="4" fill="#F8F9FA"/><rect x="44" y="68" width="4" height="4" fill="#F8F9FA"/><rect x="0" y="72" width="4" height="4" fill="#F8F9FA"/><rect x="28" y="72" width="4" height="4" fill="#F8F9FA"/><rect x="32" y="72" width="4" height="4" fill="#F8F9FA"/><rect x="44" y="72" width="4" height="4" fill="#F8F9FA"/><rect x="0" y="76" width="4" height="4" fill="#F8F9FA"/><rect x="28" y="76" width="4" height="4" fill="#F8F9FA"/><rect x="32" y="76" width="4" height="4" fill="#F8F9FA"/><rect x="44" y="76" width="4" height="4" fill="#F8F9FA"/><rect x="0" y="80" width="4" height="4" fill="#F8F9FA"/><rect x="28" y="80" width="4" height="4" fill="#F8F9FA"/><rect x="32" y="80" width="4" height="4" fill="#F8F9FA"/><rect x="40" y="80" width="4" height="4" fill="#F8F9FA"/><rect x="0" y="84" width="4" height="4" fill="#F8F9FA"/><rect x="28" y="84" width="4" height="4" fill="#F8F9FA"/><rect x="32" y="84" width="4" height="4" fill="#F8F9FA"/><rect x="36" y="84" width="4" height="4" fill="#F8F9FA"/><rect x="0" y="88" width="4" height="4" fill="#F8F9FA"/><rect x="4" y="88" width="4" height="4" fill="#F8F9FA"/><rect x="8" y="88" width="4" height="4" fill="#F8F9FA"/><rect x="12" y="88" width="4" height="4" fill="#F8F9FA"/><rect x="16" y="88" width="4" height="4" fill="#F8F9FA"/><rect x="20" y="88" width="4" height="4" fill="#F8F9FA"/><rect x="24" y="88" width="4" height="4" fill="#F8F9FA"/><rect x="28" y="88" width="4" height="4" fill="#F8F9FA"/><rect x="32" y="88" width="4" height="4" fill="#F8F9FA"/><rect x="56" y="44" width="4" height="4" fill="#F8F9FA"/><rect x="60" y="44" width="4" height="4" fill="#F8F9FA"/><rect x="64" y="44" width="4" height="4" fill="#F8F9FA"/><rect x="68" y="44" width="4" height="4" fill="#F8F9FA"/><rect x="72" y="44" width="4" height="4" fill="#F8F9FA"/><rect x="76" y="44" width="4" height="4" fill="#F8F9FA"/><rect x="80" y="44" width="4" height="4" fill="#F8F9FA"/><rect x="84" y="44" width="4" height="4" fill="#F8F9FA"/><rect x="52" y="48" width="4" height="4" fill="#F8F9FA"/><rect x="80" y="48" width="4" height="4" fill="#F8F9FA"/><rect x="88" y="48" width="4" height="4" fill="#F8F9FA"/><rect x="48" y="52" width="4" height="4" fill="#F8F9FA"/><rect x="76" y="52" width="4" height="4" fill="#F8F9FA"/><rect x="84" y="52" width="4" height="4" fill="#F8F9FA"/><rect x="88" y="52" width="4" height="4" fill="#F8F9FA"/><rect x="44" y="56" width="4" height="4" fill="#F8F9FA"/><rect x="48" y="56" width="4" height="4" fill="#F8F9FA"/><rect x="52" y="56" width="4" height="4" fill="#F8F9FA"/><rect x="56" y="56" width="4" height="4" fill="#F8F9FA"/><rect x="60" y="56" width="4" height="4" fill="#F8F9FA"/><rect x="64" y="56" width="4" height="4" fill="#F8F9FA"/><rect x="68" y="56" width="4" height="4" fill="#F8F9FA"/><rect x="72" y="56" width="4" height="4" fill="#F8F9FA"/><rect x="80" y="56" width="4" height="4" fill="#F8F9FA"/><rect x="88" y="56" width="4" height="4" fill="#F8F9FA"/><rect x="44" y="60" width="4" height="4" fill="#F8F9FA"/><rect x="48" y="60" width="4" height="4" fill="#F8F9FA"/><rect x="52" y="60" width="4" height="4" fill="#F8F9FA"/><rect x="56" y="60" width="4" height="4" fill="#F8F9FA"/><rect x="60" y="60" width="4" height="4" fill="#F8F9FA"/><rect x="64" y="60" width="4" height="4" fill="#F8F9FA"/><rect x="68" y="60" width="4" height="4" fill="#F8F9FA"/><rect x="72" y="60" width="4" height="4" fill="#F8F9FA"/><rect x="76" y="60" width="4" height="4" fill="#F8F9FA"/><rect x="88" y="60" width="4" height="4" fill="#F8F9FA"/><rect x="44" y="64" width="4" height="4" fill="#F8F9FA"/><rect x="72" y="64" width="4" height="4" fill="#F8F9FA"/><rect x="76" y="64" width="4" height="4" fill="#F8F9FA"/><rect x="88" y="64" width="4" height="4" fill="#F8F9FA"/><rect x="44" y="68" width="4" height="4" fill="#F8F9FA"/><rect x="72" y="68" width="4" height="4" fill="#F8F9FA"/><rect x="76" y="68" width="4" height="4" fill="#F8F9FA"/><rect x="88" y="68" width="4" height="4" fill="#F8F9FA"/><rect x="44" y="72" width="4" height="4" fill="#F8F9FA"/><rect x="72" y="72" width="4" height="4" fill="#F8F9FA"/><rect x="76" y="72" width="4" height="4" fill="#F8F9FA"/><rect x="88" y="72" width="4" height="4" fill="#F8F9FA"/><rect x="44" y="76" width="4" height="4" fill="#F8F9FA"/><rect x="72" y="76" width="4" height="4" fill="#F8F9FA"/><rect x="76" y="76" width="4" height="4" fill="#F8F9FA"/><rect x="88" y="76" width="4" height="4" fill="#F8F9FA"/><rect x="44" y="80" width="4" height="4" fill="#F8F9FA"/><rect x="72" y="80" width="4" height="4" fill="#F8F9FA"/><rect x="76" y="80" width="4" height="4" fill="#F8F9FA"/><rect x="84" y="80" width="4" height="4" fill="#F8F9FA"/><rect x="44" y="84" width="4" height="4" fill="#F8F9FA"/><rect x="72" y="84" width="4" height="4" fill="#F8F9FA"/><rect x="76" y="84" width="4" height="4" fill="#F8F9FA"/><rect x="80" y="84" width="4" height="4" fill="#F8F9FA"/><rect x="44" y="88" width="4" height="4" fill="#F8F9FA"/><rect x="48" y="88" width="4" height="4" fill="#F8F9FA"/><rect x="52" y="88" width="4" height="4" fill="#F8F9FA"/><rect x="56" y="88" width="4" height="4" fill="#F8F9FA"/><rect x="60" y="88" width="4" height="4" fill="#F8F9FA"/><rect x="64" y="88" width="4" height="4" fill="#F8F9FA"/><rect x="68" y="88" width="4" height="4" fill="#F8F9FA"/><rect x="72" y="88" width="4" height="4" fill="#F8F9FA"/><rect x="76" y="88" width="4" height="4" fill="#F8F9FA"/><rect x="32" y="0" width="4" height="4" fill="#F8F9FA"/><rect x="36" y="0" width="4" height="4" fill="#F8F9FA"/><rect x="40" y="0" width="4" height="4" fill="#F8F9FA"/><rect x="44" y="0" width="4" height="4" fill="#F8F9FA"/><rect x="48" y="0" width="4" height="4" fill="#F8F9FA"/><rect x="52" y="0" width="4" height="4" fill="#F8F9FA"/><rect x="56" y="0" width="4" height="4" fill="#F8F9FA"/><rect x="60" y="0" width="4" height="4" fill="#F8F9FA"/><rect x="28" y="4" width="4" height="4" fill="#F8F9FA"/><rect x="32" y="4" width="4" height="4" fill="#FFC107"/><rect x="36" y="4" width="4" height="4" fill="#FFC107"/><rect x="40" y="4" width="4" height="4" fill="#FFC107"/><rect x="44" y="4" width="4" height="4" fill="#FFC107"/><rect x="48" y="4" width="4" height="4" fill="#FFC107"/><rect x="52" y="4" width="4" height="4" fill="#FFC107"/><rect x="56" y="4" width="4" height="4" fill="#F8F9FA"/><rect x="64" y="4" width="4" height="4" fill="#F8F9FA"/><rect x="24" y="8" width="4" height="4" fill="#F8F9FA"/><rect x="28" y="8" width="4" height="4" fill="#FFC107"/><rect x="32" y="8" width="4" height="4" fill="#FFC107"/><rect x="36" y="8" width="4" height="4" fill="#FFC107"/><rect x="40" y="8" width="4" height="4" fill="#FFC107"/><rect x="44" y="8" width="4" height="4" fill="#FFC107"/><rect x="48" y="8" width="4" height="4" fill="#FFC107"/><rect x="52" y="8" width="4" height="4" fill="#F8F9FA"/><rect x="60" y="8" width="4" height="4" fill="#F8F9FA"/><rect x="64" y="8" width="4" height="4" fill="#F8F9FA"/><rect x="20" y="12" width="4" height="4" fill="#F8F9FA"/><rect x="24" y="12" width="4" height="4" fill="#F8F9FA"/><rect x="28" y="12" width="4" height="4" fill="#F8F9FA"/><rect x="32" y="12" width="4" height="4" fill="#F8F9FA"/><rect x="36" y="12" width="4" height="4" fill="#F8F9FA"/><rect x="40" y="12" width="4" height="4" fill="#F8F9FA"/><rect x="44" y="12" width="4" height="4" fill="#F8F9FA"/><rect x="48" y="12" width="4" height="4" fill="#F8F9FA"/><rect x="56" y="12" width="4" height="4" fill="#F8F9FA"/><rect x="64" y="12" width="4" height="4" fill="#F8F9FA"/><rect x="20" y="16" width="4" height="4" fill="#F8F9FA"/><rect x="24" y="16" width="4" height="4" fill="#F8F9FA"/><rect x="28" y="16" width="4" height="4" fill="#F8F9FA"/><rect x="32" y="16" width="4" height="4" fill="#F8F9FA"/><rect x="36" y="16" width="4" height="4" fill="#F8F9FA"/><rect x="40" y="16" width="4" height="4" fill="#F8F9FA"/><rect x="44" y="16" width="4" height="4" fill="#F8F9FA"/><rect x="48" y="16" width="4" height="4" fill="#F8F9FA"/><rect x="52" y="16" width="4" height="4" fill="#F8F9FA"/><rect x="64" y="16" width="4" height="4" fill="#F8F9FA"/><rect x="20" y="20" width="4" height="4" fill="#F8F9FA"/><rect x="48" y="20" width="4" height="4" fill="#F8F9FA"/><rect x="52" y="20" width="4" height="4" fill="#F8F9FA"/><rect x="64" y="20" width="4" height="4" fill="#F8F9FA"/><rect x="20" y="24" width="4" height="4" fill="#F8F9FA"/><rect x="48" y="24" width="4" height="4" fill="#F8F9FA"/><rect x="52" y="24" width="4" height="4" fill="#F8F9FA"/><rect x="64" y="24" width="4" height="4" fill="#F8F9FA"/><rect x="20" y="28" width="4" height="4" fill="#F8F9FA"/><rect x="48" y="28" width="4" height="4" fill="#F8F9FA"/><rect x="52" y="28" width="4" height="4" fill="#F8F9FA"/><rect x="64" y="28" width="4" height="4" fill="#F8F9FA"/><rect x="20" y="32" width="4" height="4" fill="#F8F9FA"/><rect x="48" y="32" width="4" height="4" fill="#F8F9FA"/><rect x="52" y="32" width="4" height="4" fill="#F8F9FA"/><rect x="64" y="32" width="4" height="4" fill="#F8F9FA"/><rect x="20" y="36" width="4" height="4" fill="#F8F9FA"/><rect x="48" y="36" width="4" height="4" fill="#F8F9FA"/><rect x="52" y="36" width="4" height="4" fill="#F8F9FA"/><rect x="60" y="36" width="4" height="4" fill="#F8F9FA"/><rect x="20" y="40" width="4" height="4" fill="#F8F9FA"/><rect x="48" y="40" width="4" height="4" fill="#F8F9FA"/><rect x="52" y="40" width="4" height="4" fill="#F8F9FA"/><rect x="56" y="40" width="4" height="4" fill="#F8F9FA"/><rect x="20" y="44" width="4" height="4" fill="#F8F9FA"/><rect x="24" y="44" width="4" height="4" fill="#F8F9FA"/><rect x="28" y="44" width="4" height="4" fill="#F8F9FA"/><rect x="32" y="44" width="4" height="4" fill="#F8F9FA"/><rect x="36" y="44" width="4" height="4" fill="#F8F9FA"/><rect x="40" y="44" width="4" height="4" fill="#F8F9FA"/><rect x="44" y="44" width="4" height="4" fill="#F8F9FA"/><rect x="48" y="44" width="4" height="4" fill="#F8F9FA"/><rect x="52" y="44" width="4" height="4" fill="#F8F9FA"/></svg>