<svg xmlns="http://www.w3.org/2000/svg" viewBox="0 0 680 144" shape-rendering="crispEdges" style="image-rendering:pixelated;display:block"><rect x="28" y="68" width="4" height="4" fill="#0F0F11"/><rect x="32" y="68" width="4" height="4" fill="#0F0F11"/><rect x="36" y="68" width="4" height="4" fill="#0F0F11"/><rect x="40" y="68" width="4" height="4" fill="#0F0F11"/><rect x="44" y="68" width="4" height="4" fill="#0F0F11"/><rect x="48" y="68" width="4" height="4" fill="#0F0F11"/><rect x="52" y="68" width="4" height="4" fill="#0F0F11"/><rect x="56" y="68" width="4" height="4" fill="#0F0F11"/><rect x="24" y="72" width="4" height="4" fill="#0F0F11"/><rect x="52" y="72" width="4" height="4" fill="#0F0F11"/><rect x="60" y="72" width="4" height="4" fill="#0F0F11"/><rect x="20" y="76" width="4" height="4" fill="#0F0F11"/><rect x="48" y="76" width="4" height="4" fill="#0F0F11"/><rect x="56" y="76" width="4" height="4" fill="#0F0F11"/><rect x="60" y="76" width="4" height="4" fill="#0F0F11"/><rect x="16" y="80" width="4" height="4" fill="#0F0F11"/><rect x="20" y="80" width="4" height="4" fill="#0F0F11"/><rect x="24" y="80" width="4" height="4" fill="#0F0F11"/><rect x="28" y="80" width="4" height="4" fill="#0F0F11"/><rect x="32" y="80" width="4" height="4" fill="#0F0F11"/><rect x="36" y="80" width="4" height="4" fill="#0F0F11"/><rect x="40" y="80" width="4" height="4" fill="#0F0F11"/><rect x="44" y="80" width="4" height="4" fill="#0F0F11"/><rect x="52" y="80" width="4" height="4" fill="#0F0F11"/><rect x="60" y="80" width="4" height="4" fill="#0F0F11"/><rect x="16" y="84" width="4" height="4" fill="#0F0F11"/><rect x="20" y="84" width="4" height="4" fill="#0F0F11"/><rect x="24" y="84" width="4" height="4" fill="#0F0F11"/><rect x="28" y="84" width="4" height="4" fill="#0F0F11"/><rect x="32" y="84" width="4" height="4" fill="#0F0F11"/><rect x="36" y="84" width="4" height="4" fill="#0F0F11"/><rect x="40" y="84" width="4" height="4" fill="#0F0F11"/><rect x="44" y="84" width="4" height="4" fill="#0F0F11"/><rect x="48" y="84" width="4" height="4" fill="#0F0F11"/><rect x="60" y="84" width="4" height="4" fill="#0F0F11"/><rect x="16" y="88" width="4" height="4" fill="#0F0F11"/><rect x="44" y="88" width="4" height="4" fill="#0F0F11"/><rect x="48" y="88" width="4" height="4" fill="#0F0F11"/><rect x="60" y="88" width="4" height="4" fill="#0F0F11"/><rect x="16" y="92" width="4" height="4" fill="#0F0F11"/><rect x="44" y="92" width="4" height="4" fill="#0F0F11"/><rect x="48" y="92" width="4" height="4" fill="#0F0F11"/><rect x="60" y="92" width="4" height="4" fill="#0F0F11"/><rect x="16" y="96" width="4" height="4" fill="#0F0F11"/><rect x="44" y="96" width="4" height="4" fill="#0F0F11"/><rect x="48" y="96" width="4" height="4" fill="#0F0F11"/><rect x="60" y="96" width="4" height="4" fill="#0F0F11"/><rect x="16" y="100" width="4" height="4" fill="#0F0F11"/><rect x="44" y="100" width="4" height="4" fill="#0F0F11"/><rect x="48" y="100" width="4" height="4" fill="#0F0F11"/><rect x="60" y="100" width="4" height="4" fill="#0F0F11"/><rect x="16" y="104" width="4" height="4" fill="#0F0F11"/><rect x="44" y="104" width="4" height="4" fill="#0F0F11"/><rect x="48" y="104" width="4" height="4" fill="#0F0F11"/><rect x="56" y="104" width="4" height="4" fill="#0F0F11"/><rect x="16" y="108" width="4" height="4" fill="#0F0F11"/><rect x="44" y="108" width="4" height="4" fill="#0F0F11"/><rect x="48" y="108" width="4" height="4" fill="#0F0F11"/><rect x="52" y="108" width="4" height="4" fill="#0F0F11"/><rect x="16" y="112" width="4" height="4" fill="#0F0F11"/><rect x="20" y="112" width="4" height="4" fill="#0F0F11"/><rect x="24" y="112" width="4" height="4" fill="#0F0F11"/><rect x="28" y="112" width="4" height="4" fill="#0F0F11"/><rect x="32" y="112" width="4" height="4" fill="#0F0F11"/><rect x="36" y="112" width="4" height="4" fill="#0F0F11"/><rect x="40" y="112" width="4" height="4" fill="#0F0F11"/><rect x="44" y="112" width="4" height="4" fill="#0F0F11"/><rect x="48" y="112" width="4" height="4" fill="#0F0F11"/><rect x="72" y="68" width="4" height="4" fill="#0F0F11"/><rect x="76" y="68" width="4" height="4" fill="#0F0F11"/><rect x="80" y="68" width="4" height="4" fill="#0F0F11"/><rect x="84" y="68" width="4" height="4" fill="#0F0F11"/><rect x="88" y="68" width="4" height="4" fill="#0F0F11"/><rect x="92" y="68" width="4" height="4" fill="#0F0F11"/><rect x="96" y="68" width="4" height="4" fill="#0F0F11"/><rect x="100" y="68" width="4" height="4" fill="#0F0F11"/><rect x="68" y="72" width="4" height="4" fill="#0F0F11"/><rect x="96" y="72" width="4" height="4" fill="#0F0F11"/><rect x="104" y="72" width="4" height="4" fill="#0F0F11"/><rect x="64" y="76" width="4" height="4" fill="#0F0F11"/><rect x="92" y="76" width="4" height="4" fill="#0F0F11"/><rect x="100" y="76" width="4" height="4" fill="#0F0F11"/><rect x="104" y="76" width="4" height="4" fill="#0F0F11"/><rect x="60" y="80" width="4" height="4" fill="#0F0F11"/><rect x="64" y="80" width="4" height="4" fill="#0F0F11"/><rect x="68" y="80" width="4" height="4" fill="#0F0F11"/><rect x="72" y="80" width="4" height="4" fill="#0F0F11"/><rect x="76" y="80" width="4" height="4" fill="#0F0F11"/><rect x="80" y="80" width="4" height="4" fill="#0F0F11"/><rect x="84" y="80" width="4" height="4" fill="#0F0F11"/><rect x="88" y="80" width="4" height="4" fill="#0F0F11"/><rect x="96" y="80" width="4" height="4" fill="#0F0F11"/><rect x="104" y="80" width="4" height="4" fill="#0F0F11"/><rect x="60" y="84" width="4" height="4" fill="#0F0F11"/><rect x="64" y="84" width="4" height="4" fill="#0F0F11"/><rect x="68" y="84" width="4" height="4" fill="#0F0F11"/><rect x="72" y="84" width="4" height="4" fill="#0F0F11"/><rect x="76" y="84" width="4" height="4" fill="#0F0F11"/><rect x="80" y="84" width="4" height="4" fill="#0F0F11"/><rect x="84" y="84" width="4" height="4" fill="#0F0F11"/><rect x="88" y="84" width="4" height="4" fill="#0F0F11"/><rect x="92" y="84" width="4" height="4" fill="#0F0F11"/><rect x="104" y="84" width="4" height="4" fill="#0F0F11"/><rect x="60" y="88" width="4" height="4" fill="#0F0F11"/><rect x="88" y="88" width="4" height="4" fill="#0F0F11"/><rect x="92" y="88" width="4" height="4" fill="#0F0F11"/><rect x="104" y="88" width="4" height="4" fill="#0F0F11"/><rect x="60" y="92" width="4" height="4" fill="#0F0F11"/><rect x="88" y="92" width="4" height="4" fill="#0F0F11"/><rect x="92" y="92" width="4" height="4" fill="#0F0F11"/><rect x="104" y="92" width="4" height="4" fill="#0F0F11"/><rect x="60" y="96" width="4" height="4" fill="#0F0F11"/><rect x="88" y="96" width="4" height="4" fill="#0F0F11"/><rect x="92" y="96" width="4" height="4" fill="#0F0F11"/><rect x="104" y="96" width="4" height="4" fill="#0F0F11"/><rect x="60" y="100" width="4" height="4" fill="#0F0F11"/><rect x="88" y="100" width="4" height="4" fill="#0F0F11"/><rect x="92" y="100" width="4" height="4" fill="#0F0F11"/><rect x="104" y="100" width="4" height="4" fill="#0F0F11"/><rect x="60" y="104" width="4" height="4" fill="#0F0F11"/><rect x="88" y="104" width="4" height="4" fill="#0F0F11"/><rect x="92" y="104" width="4" height="4" fill="#0F0F11"/><rect x="100" y="104" width="4" height="4" fill="#0F0F11"/><rect x="60" y="108" width="4" height="4" fill="#0F0F11"/><rect x="88" y="108" width="4" height="4" fill="#0F0F11"/><rect x="92" y="108" width="4" height="4" fill="#0F0F11"/><rect x="96" y="108" width="4" height="4" fill="#0F0F11"/><rect x="60" y="112" width="4" height="4" fill="#0F0F11"/><rect x="64" y="112" width="4" height="4" fill="#0F0F11"/><rect x="68" y="112" width="4" height="4" fill="#0F0F11"/><rect x="72" y="112" width="4" height="4" fill="#0F0F11"/><rect x="76" y="112" width="4" height="4" fill="#0F0F11"/><rect x="80" y="112" width="4" height="4" fill="#0F0F11"/><rect x="84" y="112" width="4" height="4" fill="#0F0F11"/><rect x="88" y="112" width="4" height="4" fill="#0F0F11"/><rect x="92" y="112" width="4" height="4" fill="#0F0F11"/><rect x="48" y="24" width="4" height="4" fill="#0F0F11"/><rect x="52" y="24" width="4" height="4" fill="#0F0F11"/><rect x="56" y="24" width="4" height="4" fill="#0F0F11"/><rect x="60" y="24" width="4" height="4" fill="#0F0F11"/><rect x="64" y="24" width="4" height="4" fill="#0F0F11"/><rect x="68" y="24" width="4" height="4" fill="#0F0F11"/><rect x="72" y="24" width="4" height="4" fill="#0F0F11"/><rect x="76" y="24" width="4" height="4" fill="#0F0F11"/><rect x="44" y="28" width="4" height="4" fill="#0F0F11"/><rect x="48" y="28" width="4" height="4" fill="#FFC107"/><rect x="52" y="28" width="4" height="4" fill="#FFC107"/><rect x="56" y="28" width="4" height="4" fill="#FFC107"/><rect x="60" y="28" width="4" height="4" fill="#FFC107"/><rect x="64" y="28" width="4" height="4" fill="#FFC107"/><rect x="68" y="28" width="4" height="4" fill="#FFC107"/><rect x="72" y="28" width="4" height="4" fill="#0F0F11"/><rect x="80" y="28" width="4" height="4" fill="#0F0F11"/><rect x="40" y="32" width="4" height="4" fill="#0F0F11"/><rect x="44" y="32" width="4" height="4" fill="#FFC107"/><rect x="48" y="32" width="4" height="4" fill="#FFC107"/><rect x="52" y="32" width="4" height="4" fill="#FFC107"/><rect x="56" y="32" width="4" height="4" fill="#FFC107"/><rect x="60" y="32" width="4" height="4" fill="#FFC107"/><rect x="64" y="32" width="4" height="4" fill="#FFC107"/><rect x="68" y="32" width="4" height="4" fill="#0F0F11"/><rect x="76" y="32" width="4" height="4" fill="#0F0F11"/><rect x="80" y="32" width="4" height="4" fill="#0F0F11"/><rect x="36" y="36" width="4" height="4" fill="#0F0F11"/><rect x="40" y="36" width="4" height="4" fill="#0F0F11"/><rect x="44" y="36" width="4" height="4" fill="#0F0F11"/><rect x="48" y="36" width="4" height="4" fill="#0F0F11"/><rect x="52" y="36" width="4" height="4" fill="#0F0F11"/><rect x="56" y="36" width="4" height="4" fill="#0F0F11"/><rect x="60" y="36" width="4" height="4" fill="#0F0F11"/><rect x="64" y="36" width="4" height="4" fill="#0F0F11"/><rect x="72" y="36" width="4" height="4" fill="#0F0F11"/><rect x="80" y="36" width="4" height="4" fill="#0F0F11"/><rect x="36" y="40" width="4" height="4" fill="#0F0F11"/><rect x="40" y="40" width="4" height="4" fill="#0F0F11"/><rect x="44" y="40" width="4" height="4" fill="#0F0F11"/><rect x="48" y="40" width="4" height="4" fill="#0F0F11"/><rect x="52" y="40" width="4" height="4" fill="#0F0F11"/><rect x="56" y="40" width="4" height="4" fill="#0F0F11"/><rect x="60" y="40" width="4" height="4" fill="#0F0F11"/><rect x="64" y="40" width="4" height="4" fill="#0F0F11"/><rect x="68" y="40" width="4" height="4" fill="#0F0F11"/><rect x="80" y="40" width="4" height="4" fill="#0F0F11"/><rect x="36" y="44" width="4" height="4" fill="#0F0F11"/><rect x="64" y="44" width="4" height="4" fill="#0F0F11"/><rect x="68" y="44" width="4" height="4" fill="#0F0F11"/><rect x="80" y="44" width="4" height="4" fill="#0F0F11"/><rect x="36" y="48" width="4" height="4" fill="#0F0F11"/><rect x="64" y="48" width="4" height="4" fill="#0F0F11"/><rect x="68" y="48" width="4" height="4" fill="#0F0F11"/><rect x="80" y="48" width="4" height="4" fill="#0F0F11"/><rect x="36" y="52" width="4" height="4" fill="#0F0F11"/><rect x="64" y="52" width="4" height="4" fill="#0F0F11"/><rect x="68" y="52" width="4" height="4" fill="#0F0F11"/><rect x="80" y="52" width="4" height="4" fill="#0F0F11"/><rect x="36" y="56" width="4" height="4" fill="#0F0F11"/><rect x="64" y="56" width="4" height="4" fill="#0F0F11"/><rect x="68" y="56" width="4" height="4" fill="#0F0F11"/><rect x="80" y="56" width="4" height="4" fill="#0F0F11"/><rect x="36" y="60" width="4" height="4" fill="#0F0F11"/><rect x="64" y="60" width="4" height="4" fill="#0F0F11"/><rect x="68" y="60" width="4" height="4" fill="#0F0F11"/><rect x="76" y="60" width="4" height="4" fill="#0F0F11"/><rect x="36" y="64" width="4" height="4" fill="#0F0F11"/><rect x="64" y="64" width="4" height="4" fill="#0F0F11"/><rect x="68" y="64" width="4" height="4" fill="#0F0F11"/><rect x="72" y="64" width="4" height="4" fill="#0F0F11"/><rect x="36" y="68" width="4" height="4" fill="#0F0F11"/><rect x="40" y="68" width="4" height="4" fill="#0F0F11"/><rect x="44" y="68" width="4" height="4" fill="#0F0F11"/><rect x="48" y="68" width="4" height="4" fill="#0F0F11"/><rect x="52" y="68" width="4" height="4" fill="#0F0F11"/><rect x="56" y="68" width="4" height="4" fill="#0F0F11"/><rect x="60" y="68" width="4" height="4" fill="#0F0F11"/><rect x="64" y="68" width="4" height="4" fill="#0F0F11"/><rect x="68" y="68" width="4" height="4" fill="#0F0F11"/><rect x="140" y="16" width="8" height="8" fill="#0F0F11"/><rect x="148" y="16" width="8" height="8" fill="#0F0F11"/><rect x="156" y="16" width="8" height="8" fill="#0F0F11"/><rect x="164" y="16" width="8" height="8" fill="#0F0F11"/><rect x="172" y="24" width="8" height="8" fill="#0F0F11"/><rect x="172" y="32" width="8" height="8" fill="#0F0F11"/><rect x="148" y="40" width="8" height="8" fill="#0F0F11"/><rect x="156" y="40" width="8" height="8" fill="#0F0F11"/><rect x="164" y="40" width="8" height="8" fill="#0F0F11"/><rect x="172" y="48" width="8" height="8" fill="#0F0F11"/><rect x="172" y="56" width="8" height="8" fill="#0F0F11"/><rect x="140" y="64" width="8" height="8" fill="#0F0F11"/><rect x="148" y="64" width="8" height="8" fill="#0F0F11"/><rect x="156" y="64" width="8" height="8" fill="#0F0F11"/><rect x="164" y="64" width="8" height="8" fill="#0F0F11"/><rect x="188" y="16" width="8" height="8" fill="#0F0F11"/><rect x="196" y="16" width="8" height="8" fill="#0F0F11"/><rect x="204" y="16" width="8" height="8" fill="#0F0F11"/><rect x="212" y="16" width="8" height="8" fill="#0F0F11"/><rect x="188" y="24" width="8" height="8" fill="#0F0F11"/><rect x="220" y="24" width="8" height="8" fill="#0F0F11"/><rect x="188" y="32" width="8" height="8" fill="#0F0F11"/><rect x="220" y="32" width="8" height="8" fill="#0F0F11"/><rect x="188" y="40" width="8" height="8" fill="#0F0F11"/><rect x="220" y="40" width="8" height="8" fill="#0F0F11"/><rect x="188" y="48" width="8" height="8" fill="#0F0F11"/><rect x="220" y="48" width="8" height="8" fill="#0F0F11"/><rect x="188" y="56" width="8" height="8" fill="#0F0F11"/><rect x="220" y="56" width="8" height="8" fill="#0F0F11"/><rect x="188" y="64" width="8" height="8" fill="#0F0F11"/><rect x="196" y="64" width="8" height="8" fill="#0F0F11"/><rect x="204" y="64" width="8" height="8" fill="#0F0F11"/><rect x="212" y="64" width="8" height="8" fill="#0F0F11"/><rect x="284" y="16" width="8" height="8" fill="#0F0F11"/><rect x="292" y="16" width="8" height="8" fill="#0F0F11"/><rect x="300" y="16" width="8" height="8" fill="#0F0F11"/><rect x="308" y="16" width="8" height="8" fill="#0F0F11"/><rect x="316" y="16" width="8" height="8" fill="#0F0F11"/><rect x="300" y="24" width="8" height="8" fill="#0F0F11"/><rect x="300" y="32" width="8" height="8" fill="#0F0F11"/><rect x="300" y="40" width="8" height="8" fill="#0F0F11"/><rect x="300" y="48" width="8" height="8" fill="#0F0F11"/><rect x="300" y="56" width="8" height="8" fill="#0F0F11"/><rect x="300" y="64" width="8" height="8" fill="#0F0F11"/><rect x="332" y="16" width="8" height="8" fill="#0F0F11"/><rect x="340" y="16" width="8" height="8" fill="#0F0F11"/><rect x="348" y="16" width="8" height="8" fill="#0F0F11"/><rect x="356" y="16" width="8" height="8" fill="#0F0F11"/><rect x="364" y="16" width="8" height="8" fill="#0F0F11"/><rect x="348" y="24" width="8" height="8" fill="#0F0F11"/><rect x="348" y="32" width="8" height="8" fill="#0F0F11"/><rect x="348" y="40" width="8" height="8" fill="#0F0F11"/><rect x="348" y="48" width="8" height="8" fill="#0F0F11"/><rect x="348" y="56" width="8" height="8" fill="#0F0F11"/><rect x="332" y="64" width="8" height="8" fill="#0F0F11"/><rect x="340" y="64" width="8" height="8" fill="#0F0F11"/><rect x="348" y="64" width="8" height="8" fill="#0F0F11"/><rect x="356" y="64" width="8" height="8" fill="#0F0F11"/><rect x="364" y="64" width="8" height="8" fill="#0F0F11"/><rect x="380" y="16" width="8" height="8" fill="#0F0F11"/><rect x="388" y="16" width="8" height="8" fill="#0F0F11"/><rect x="396" y="16" width="8" height="8" fill="#0F0F11"/><rect x="404" y="16" width="8" height="8" fill="#0F0F11"/><rect x="412" y="16" width="8" height="8" fill="#0F0F11"/><rect x="396" y="24" width="8" height="8" fill="#0F0F11"/><rect x="396" y="32" width="8" height="8" fill="#0F0F11"/><rect x="396" y="40" width="8" height="8" fill="#0F0F11"/><rect x="396" y="48" width="8" height="8" fill="#0F0F11"/><rect x="396" y="56" width="8" height="8" fill="#0F0F11"/><rect x="396" y="64" width="8" height="8" fill="#0F0F11"/><rect x="436" y="16" width="8" height="8" fill="#0F0F11"/><rect x="444" y="16" width="8" height="8" fill="#0F0F11"/><rect x="452" y="16" width="8" height="8" fill="#0F0F11"/><rect x="428" y="24" width="8" height="8" fill="#0F0F11"/><rect x="460" y="24" width="8" height="8" fill="#0F0F11"/><rect x="428" y="32" width="8" height="8" fill="#0F0F11"/><rect x="460" y="32" width="8" height="8" fill="#0F0F11"/><rect x="428" y="40" width="8" height="8" fill="#0F0F11"/><rect x="436" y="40" width="8" height="8" fill="#0F0F11"/><rect x="444" y="40" width="8" height="8" fill="#0F0F11"/><rect x="452" y="40" width="8" height="8" fill="#0F0F11"/><rect x="460" y="40" width="8" height="8" fill="#0F0F11"/><rect x="428" y="48" width="8" height="8" fill="#0F0F11"/><rect x="460" y="48" width="8" height="8" fill="#0F0F11"/><rect x="428" y="56" width="8" height="8" fill="#0F0F11"/><rect x="460" y="56" width="8" height="8" fill="#0F0F11"/><rect x="428" y="64" width="8" height="8" fill="#0F0F11"/><rect x="460" y="64" width="8" height="8" fill="#0F0F11"/><rect x="476" y="16" width="8" height="8" fill="#0F0F11"/><rect x="508" y="16" width="8" height="8" fill="#0F0F11"/><rect x="476" y="24" width="8" height="8" fill="#0F0F11"/><rect x="484" y="24" width="8" height="8" fill="#0F0F11"/><rect x="508" y="24" width="8" height="8" fill="#0F0F11"/><rect x="476" y="32" width="8" height="8" fill="#0F0F11"/><rect x="492" y="32" width="8" height="8" fill="#0F0F11"/><rect x="508" y="32" width="8" height="8" fill="#0F0F11"/><rect x="476" y="40" width="8" height="8" fill="#0F0F11"/><rect x="500" y="40" width="8" height="8" fill="#0F0F11"/><rect x="508" y="40" width="8" height="8" fill="#0F0F11"/><rect x="476" y="48" width="8" height="8" fill="#0F0F11"/><rect x="508" y="48" width="8" height="8" fill="#0F0F11"/><rect x="476" y="56" width="8" height="8" fill="#0F0F11"/><rect x="508" y="56" width="8" height="8" fill="#0F0F11"/><rect x="476" y="64" width="8" height="8" fill="#0F0F11"/><rect x="508" y="64" width="8" height="8" fill="#0F0F11"/><rect x="532" y="16" width="8" height="8" fill="#0F0F11"/><rect x="540" y="16" width="8" height="8" fill="#0F0F11"/><rect x="548" y="16" width="8" height="8" fill="#0F0F11"/><rect x="556" y="16" width="8" height="8" fill="#0F0F11"/><rect x="524" y="24" width="8" height="8" fill="#0F0F11"/><rect x="524" y="32" width="8" height="8" fill="#0F0F11"/><rect x="532" y="40" width="8" height="8" fill="#0F0F11"/><rect x="540" y="40" width="8" height="8" fill="#0F0F11"/><rect x="548" y="40" width="8" height="8" fill="#0F0F11"/><rect x="556" y="48" width="8" height="8" fill="#0F0F11"/><rect x="556" y="56" width="8" height="8" fill="#0F0F11"/><rect x="524" y="64" width="8" height="8" fill="#0F0F11"/><rect x="532" y="64" width="8" height="8" fill="#0F0F11"/><rect x="540" y="64" width="8" height="8" fill="#0F0F11"/><rect x="548" y="64" width="8" height="8" fill="#0F0F11"/><rect x="140" y="84" width="424" height="4" fill="#FFC107"/><rect x="144" y="100" width="4" height="4" fill="#0F0F11"/><rect x="148" y="100" width="4" height="4" fill="#0F0F11"/><rect x="152" y="100" width="4" height="4" fill="#0F0F11"/><rect x="140" y="104" width="4" height="4" fill="#0F0F11"/><rect x="156" y="104" width="4" height="4" fill="#0F0F11"/><rect x="140" y="108" width="4" height="4" fill="#0F0F11"/><rect x="156" y="108" width="4" height="4" fill="#0F0F11"/><rect x="140" y="112" width="4" height="4" fill="#0F0F11"/><rect x="144" y="112" width="4" height="4" fill="#0F0F11"/><rect x="148" y="112" width="4" height="4" fill="#0F0F11"/><rect x="152" y="112" width="4" height="4" fill="#0F0F11"/><rect x="156" y="112" width="4" height="4" fill="#0F0F11"/><rect x="140" y="116" width="4" height="4" fill="#0F0F11"/><rect x="156" y="116" width="4" height="4" fill="#0F0F11"/><rect x="140" y="120" width="4" height="4" fill="#0F0F11"/><rect x="156" y="120" width="4" height="4" fill="#0F0F11"/><rect x="140" y="124" width="4" height="4" fill="#0F0F11"/><rect x="156" y="124" width="4" height="4" fill="#0F0F11"/><rect x="188" y="100" width="4" height="4" fill="#0F0F11"/><rect x="192" y="100" width="4" height="4" fill="#0F0F11"/><rect x="196" y="100" width="4" height="4" fill="#0F0F11"/><rect x="200" y="100" width="4" height="4" fill="#0F0F11"/><rect x="204" y="104" width="4" height="4" fill="#0F0F11"/><rect x="204" y="108" width="4" height="4" fill="#0F0F11"/><rect x="192" y="112" width="4" height="4" fill="#0F0F11"/><rect x="196" y="112" width="4" height="4" fill="#0F0F11"/><rect x="200" y="112" width="4" height="4" fill="#0F0F11"/><rect x="204" y="116" width="4" height="4" fill="#0F0F11"/><rect x="204" y="120" width="4" height="4" fill="#0F0F11"/><rect x="188" y="124" width="4" height="4" fill="#0F0F11"/><rect x="192" y="124" width="4" height="4" fill="#0F0F11"/><rect x="196" y="124" width="4" height="4" fill="#0F0F11"/><rect x="200" y="124" width="4" height="4" fill="#0F0F11"/><rect x="212" y="100" width="4" height="4" fill="#0F0F11"/><rect x="216" y="100" width="4" height="4" fill="#0F0F11"/><rect x="220" y="100" width="4" height="4" fill="#0F0F11"/><rect x="224" y="100" width="4" height="4" fill="#0F0F11"/><rect x="212" y="104" width="4" height="4" fill="#0F0F11"/><rect x="228" y="104" width="4" height="4" fill="#0F0F11"/><rect x="212" y="108" width="4" height="4" fill="#0F0F11"/><rect x="228" y="108" width="4" height="4" fill="#0F0F11"/><rect x="212" y="112" width="4" height="4" fill="#0F0F11"/><rect x="228" y="112" width="4" height="4" fill="#0F0F11"/><rect x="212" y="116" width="4" height="4" fill="#0F0F11"/><rect x="228" y="116" width="4" height="4" fill="#0F0F11"/><rect x="212" y="120" width="4" height="4" fill="#0F0F11"/><rect x="228" y="120" width="4" height="4" fill="#0F0F11"/><rect x="212" y="124" width="4" height="4" fill="#0F0F11"/><rect x="216" y="124" width="4" height="4" fill="#0F0F11"/><rect x="220" y="124" width="4" height="4" fill="#0F0F11"/><rect x="224" y="124" width="4" height="4" fill="#0F0F11"/><rect x="260" y="100" width="4" height="4" fill="#0F0F11"/><rect x="276" y="100" width="4" height="4" fill="#0F0F11"/><rect x="260" y="104" width="4" height="4" fill="#0F0F11"/><rect x="264" y="104" width="4" height="4" fill="#0F0F11"/><rect x="272" y="104" width="4" height="4" fill="#0F0F11"/><rect x="276" y="104" width="4" height="4" fill="#0F0F11"/><rect x="260" y="108" width="4" height="4" fill="#0F0F11"/><rect x="268" y="108" width="4" height="4" fill="#0F0F11"/><rect x="276" y="108" width="4" height="4" fill="#0F0F11"/><rect x="260" y="112" width="4" height="4" fill="#0F0F11"/><rect x="276" y="112" width="4" height="4" fill="#0F0F11"/><rect x="260" y="116" width="4" height="4" fill="#0F0F11"/><rect x="276" y="116" width="4" height="4" fill="#0F0F11"/><rect x="260" y="120" width="4" height="4" fill="#0F0F11"/><rect x="276" y="120" width="4" height="4" fill="#0F0F11"/><rect x="260" y="124" width="4" height="4" fill="#0F0F11"/><rect x="276" y="124" width="4" height="4" fill="#0F0F11"/><rect x="288" y="100" width="4" height="4" fill="#0F0F11"/><rect x="292" y="100" width="4" height="4" fill="#0F0F11"/><rect x="296" y="100" width="4" height="4" fill="#0F0F11"/><rect x="284" y="104" width="4" height="4" fill="#0F0F11"/><rect x="300" y="104" width="4" height="4" fill="#0F0F11"/><rect x="284" y="108" width="4" height="4" fill="#0F0F11"/><rect x="300" y="108" width="4" height="4" fill="#0F0F11"/><rect x="284" y="112" width="4" height="4" fill="#0F0F11"/><rect x="300" y="112" width="4" height="4" fill="#0F0F11"/><rect x="284" y="116" width="4" height="4" fill="#0F0F11"/><rect x="300" y="116" width="4" height="4" fill="#0F0F11"/><rect x="284" y="120" width="4" height="4" fill="#0F0F11"/><rect x="300" y="120" width="4" height="4" fill="#0F0F11"/><rect x="288" y="124" width="4" height="4" fill="#0F0F11"/><rect x="292" y="124" width="4" height="4" fill="#0F0F11"/><rect x="296" y="124" width="4" height="4" fill="#0F0F11"/><rect x="308" y="100" width="4" height="4" fill="#0F0F11"/><rect x="312" y="100" width="4" height="4" fill="#0F0F11"/><rect x="316" y="100" width="4" height="4" fill="#0F0F11"/><rect x="320" y="100" width="4" height="4" fill="#0F0F11"/><rect x="308" y="104" width="4" height="4" fill="#0F0F11"/><rect x="324" y="104" width="4" height="4" fill="#0F0F11"/><rect x="308" y="108" width="4" height="4" fill="#0F0F11"/><rect x="324" y="108" width="4" height="4" fill="#0F0F11"/><rect x="308" y="112" width="4" height="4" fill="#0F0F11"/><rect x="324" y="112" width="4" height="4" fill="#0F0F11"/><rect x="308" y="116" width="4" height="4" fill="#0F0F11"/><rect x="324" y="116" width="4" height="4" fill="#0F0F11"/><rect x="308" y="120" width="4" height="4" fill="#0F0F11"/><rect x="324" y="120" width="4" height="4" fill="#0F0F11"/><rect x="308" y="124" width="4" height="4" fill="#0F0F11"/><rect x="312" y="124" width="4" height="4" fill="#0F0F11"/><rect x="316" y="124" width="4" height="4" fill="#0F0F11"/><rect x="320" y="124" width="4" height="4" fill="#0F0F11"/><rect x="332" y="100" width="4" height="4" fill="#0F0F11"/><rect x="336" y="100" width="4" height="4" fill="#0F0F11"/><rect x="340" y="100" width="4" height="4" fill="#0F0F11"/><rect x="344" y="100" width="4" height="4" fill="#0F0F11"/><rect x="348" y="100" width="4" height="4" fill="#0F0F11"/><rect x="332" y="104" width="4" height="4" fill="#0F0F11"/><rect x="332" y="108" width="4" height="4" fill="#0F0F11"/><rect x="332" y="112" width="4" height="4" fill="#0F0F11"/><rect x="336" y="112" width="4" height="4" fill="#0F0F11"/><rect x="340" y="112" width="4" height="4" fill="#0F0F11"/><rect x="344" y="112" width="4" height="4" fill="#0F0F11"/><rect x="332" y="116" width="4" height="4" fill="#0F0F11"/><rect x="332" y="120" width="4" height="4" fill="#0F0F11"/><rect x="332" y="124" width="4" height="4" fill="#0F0F11"/><rect x="336" y="124" width="4" height="4" fill="#0F0F11"/><rect x="340" y="124" width="4" height="4" fill="#0F0F11"/><rect x="344" y="124" width="4" height="4" fill="#0F0F11"/><rect x="348" y="124" width="4" height="4" fill="#0F0F11"/><rect x="356" y="100" width="4" height="4" fill="#0F0F11"/><rect x="356" y="104" width="4" height="4" fill="#0F0F11"/><rect x="356" y="108" width="4" height="4" fill="#0F0F11"/><rect x="356" y="112" width="4" height="4" fill="#0F0F11"/><rect x="356" y="116" width="4" height="4" fill="#0F0F11"/><rect x="356" y="120" width="4" height="4" fill="#0F0F11"/><rect x="356" y="124" width="4" height="4" fill="#0F0F11"/><rect x="360" y="124" width="4" height="4" fill="#0F0F11"/><rect x="364" y="124" width="4" height="4" fill="#0F0F11"/><rect x="368" y="124" width="4" height="4" fill="#0F0F11"/><rect x="372" y="124" width="4" height="4" fill="#0F0F11"/><rect x="404" y="100" width="4" height="4" fill="#0F0F11"/><rect x="420" y="100" width="4" height="4" fill="#0F0F11"/><rect x="404" y="104" width="4" height="4" fill="#0F0F11"/><rect x="408" y="104" width="4" height="4" fill="#0F0F11"/><rect x="416" y="104" width="4" height="4" fill="#0F0F11"/><rect x="420" y="104" width="4" height="4" fill="#0F0F11"/><rect x="404" y="108" width="4" height="4" fill="#0F0F11"/><rect x="412" y="108" width="4" height="4" fill="#0F0F11"/><rect x="420" y="108" width="4" height="4" fill="#0F0F11"/><rect x="404" y="112" width="4" height="4" fill="#0F0F11"/><rect x="420" y="112" width="4" height="4" fill="#0F0F11"/><rect x="404" y="116" width="4" height="4" fill="#0F0F11"/><rect x="420" y="116" width="4" height="4" fill="#0F0F11"/><rect x="404" y="120" width="4" height="4" fill="#0F0F11"/><rect x="420" y="120" width="4" height="4" fill="#0F0F11"/><rect x="404" y="124" width="4" height="4" fill="#0F0F11"/><rect x="420" y="124" width="4" height="4" fill="#0F0F11"/><rect x="432" y="100" width="4" height="4" fill="#0F0F11"/><rect x="436" y="100" width="4" height="4" fill="#0F0F11"/><rect x="440" y="100" width="4" height="4" fill="#0F0F11"/><rect x="428" y="104" width="4" height="4" fill="#0F0F11"/><rect x="444" y="104" width="4" height="4" fill="#0F0F11"/><rect x="428" y="108" width="4" height="4" fill="#0F0F11"/><rect x="444" y="108" width="4" height="4" fill="#0F0F11"/><rect x="428" y="112" width="4" height="4" fill="#0F0F11"/><rect x="432" y="112" width="4" height="4" fill="#0F0F11"/><rect x="436" y="112" width="4" height="4" fill="#0F0F11"/><rect x="440" y="112" width="4" height="4" fill="#0F0F11"/><rect x="444" y="112" width="4" height="4" fill="#0F0F11"/><rect x="428" y="116" width="4" height="4" fill="#0F0F11"/><rect x="444" y="116" width="4" height="4" fill="#0F0F11"/><rect x="428" y="120" width="4" height="4" fill="#0F0F11"/><rect x="444" y="120" width="4" height="4" fill="#0F0F11"/><rect x="428" y="124" width="4" height="4" fill="#0F0F11"/><rect x="444" y="124" width="4" height="4" fill="#0F0F11"/><rect x="452" y="100" width="4" height="4" fill="#0F0F11"/><rect x="456" y="100" width="4" height="4" fill="#0F0F11"/><rect x="460" y="100" width="4" height="4" fill="#0F0F11"/><rect x="464" y="100" width="4" height="4" fill="#0F0F11"/><rect x="452" y="104" width="4" height="4" fill="#0F0F11"/><rect x="468" y="104" width="4" height="4" fill="#0F0F11"/><rect x="452" y="108" width="4" height="4" fill="#0F0F11"/><rect x="468" y="108" width="4" height="4" fill="#0F0F11"/><rect x="452" y="112" width="4" height="4" fill="#0F0F11"/><rect x="456" y="112" width="4" height="4" fill="#0F0F11"/><rect x="460" y="112" width="4" height="4" fill="#0F0F11"/><rect x="464" y="112" width="4" height="4" fill="#0F0F11"/><rect x="452" y="116" width="4" height="4" fill="#0F0F11"/><rect x="460" y="116" width="4" height="4" fill="#0F0F11"/><rect x="452" y="120" width="4" height="4" fill="#0F0F11"/><rect x="464" y="120" width="4" height="4" fill="#0F0F11"/><rect x="452" y="124" width="4" height="4" fill="#0F0F11"/><rect x="468" y="124" width="4" height="4" fill="#0F0F11"/><rect x="476" y="100" width="4" height="4" fill="#0F0F11"/><rect x="492" y="100" width="4" height="4" fill="#0F0F11"/><rect x="476" y="104" width="4" height="4" fill="#0F0F11"/><rect x="488" y="104" width="4" height="4" fill="#0F0F11"/><rect x="476" y="108" width="4" height="4" fill="#0F0F11"/><rect x="484" y="108" width="4" height="4" fill="#0F0F11"/><rect x="476" y="112" width="4" height="4" fill="#0F0F11"/><rect x="480" y="112" width="4" height="4" fill="#0F0F11"/><rect x="476" y="116" width="4" height="4" fill="#0F0F11"/><rect x="484" y="116" width="4" height="4" fill="#0F0F11"/><rect x="476" y="120" width="4" height="4" fill="#0F0F11"/><rect x="488" y="120" width="4" height="4" fill="#0F0F11"/><rect x="476" y="124" width="4" height="4" fill="#0F0F11"/><rect x="492" y="124" width="4" height="4" fill="#0F0F11"/><rect x="500" y="100" width="4" height="4" fill="#0F0F11"/><rect x="504" y="100" width="4" height="4" fill="#0F0F11"/><rect x="508" y="100" width="4" height="4" fill="#0F0F11"/><rect x="512" y="100" width="4" height="4" fill="#0F0F11"/><rect x="516" y="100" width="4" height="4" fill="#0F0F11"/><rect x="500" y="104" width="4" height="4" fill="#0F0F11"/><rect x="500" y="108" width="4" height="4" fill="#0F0F11"/><rect x="500" y="112" width="4" height="4" fill="#0F0F11"/><rect x="504" y="112" width="4" height="4" fill="#0F0F11"/><rect x="508" y="112" width="4" height="4" fill="#0F0F11"/><rect x="512" y="112" width="4" height="4" fill="#0F0F11"/><rect x="500" y="116" width="4" height="4" fill="#0F0F11"/><rect x="500" y="120" width="4" height="4" fill="#0F0F11"/><rect x="500" y="124" width="4" height="4" fill="#0F0F11"/><rect x="504" y="124" width="4" height="4" fill="#0F0F11"/><rect x="508" y="124" width="4" height="4" fill="#0F0F11"/><rect x="512" y="124" width="4" height="4" fill="#0F0F11"/><rect x="516" y="124" width="4" height="4" fill="#0F0F11"/><rect x="524" y="100" width="4" height="4" fill="#0F0F11"/><rect x="528" y="100" width="4" height="4" fill="#0F0F11"/><rect x="532" y="100" width="4" height="4" fill="#0F0F11"/><rect x="536" y="100" width="4" height="4" fill="#0F0F11"/><rect x="540" y="100" width="4" height="4" fill="#0F0F11"/><rect x="532" y="104" width="4" height="4" fill="#0F0F11"/><rect x="532" y="108" width="4" height="4" fill="#0F0F11"/><rect x="532" y="112" width="4" height="4" fill="#0F0F11"/><rect x="532" y="116" width="4" height="4" fill="#0F0F11"/><rect x="532" y="120" width="4" height="4" fill="#0F0F11"/><rect x="532" y="124" width="4" height="4" fill="#0F0F11"/><rect x="548" y="100" width="4" height="4" fill="#0F0F11"/><rect x="552" y="100" width="4" height="4" fill="#0F0F11"/><rect x="556" y="100" width="4" height="4" fill="#0F0F11"/><rect x="560" y="100" width="4" height="4" fill="#0F0F11"/><rect x="548" y="104" width="4" height="4" fill="#0F0F11"/><rect x="564" y="104" width="4" height="4" fill="#0F0F11"/><rect x="548" y="108" width="4" height="4" fill="#0F0F11"/><rect x="564" y="108" width="4" height="4" fill="#0F0F11"/><rect x="548" y="112" width="4" height="4" fill="#0F0F11"/><rect x="552" y="112" width="4" height="4" fill="#0F0F11"/><rect x="556" y="112" width="4" height="4" fill="#0F0F11"/><rect x="560" y="112" width="4" height="4" fill="#0F0F11"/><rect x="548" y="116" width="4" height="4" fill="#0F0F11"/><rect x="548" y="120" width="4" height="4" fill="#0F0F11"/><rect x="548" y="124" width="4" height="4" fill="#0F0F11"/><rect x="572" y="100" width="4" height="4" fill="#0F0F11"/><rect x="572" y="104" width="4" height="4" fill="#0F0F11"/><rect x="572" y="108" width="4" height="4" fill="#0F0F11"/><rect x="572" y="112" width="4" height="4" fill="#0F0F11"/><rect x="572" y="116" width="4" height="4" fill="#0F0F11"/><rect x="572" y="120" width="4" height="4" fill="#0F0F11"/><rect x="572" y="124" width="4" height="4" fill="#0F0F11"/><rect x="576" y="124" width="4" height="4" fill="#0F0F11"/><rect x="580" y="124" width="4" height="4" fill="#0F0F11"/><rect x="584" y="124" width="4" height="4" fill="#0F0F11"/><rect x="588" y="124" width="4" height="4" fill="#0F0F11"/><rect x="600" y="100" width="4" height="4" fill="#0F0F11"/><rect x="604" y="100" width="4" height="4" fill="#0F0F11"/><rect x="608" y="100" width="4" height="4" fill="#0F0F11"/><rect x="596" y="104" width="4" height="4" fill="#0F0F11"/><rect x="612" y="104" width="4" height="4" fill="#0F0F11"/><rect x="596" y="108" width="4" height="4" fill="#0F0F11"/><rect x="612" y="108" width="4" height="4" fill="#0F0F11"/><rect x="596" y="112" width="4" height="4" fill="#0F0F11"/><rect x="600" y="112" width="4" height="4" fill="#0F0F11"/><rect x="604" y="112" width="4" height="4" fill="#0F0F11"/><rect x="608" y="112" width="4" height="4" fill="#0F0F11"/><rect x="612" y="112" width="4" height="4" fill="#0F0F11"/><rect x="596" y="116" width="4" height="4" fill="#0F0F11"/><rect x="612" y="116" width="4" height="4" fill="#0F0F11"/><rect x="596" y="120" width="4" height="4" fill="#0F0F11"/><rect x="612" y="120" width="4" height="4" fill="#0F0F11"/><rect x="596" y="124" width="4" height="4" fill="#0F0F11"/><rect x="612" y="124" width="4" height="4" fill="#0F0F11"/><rect x="624" y="100" width="4" height="4" fill="#0F0F11"/><rect x="628" y="100" width="4" height="4" fill="#0F0F11"/><rect x="632" y="100" width="4" height="4" fill="#0F0F11"/><rect x="636" y="100" width="4" height="4" fill="#0F0F11"/><rect x="620" y="104" width="4" height="4" fill="#0F0F11"/><rect x="620" y="108" width="4" height="4" fill="#0F0F11"/><rect x="620" y="112" width="4" height="4" fill="#0F0F11"/><rect x="620" y="116" width="4" height="4" fill="#0F0F11"/><rect x="620" y="120" width="4" height="4" fill="#0F0F11"/><rect x="624" y="124" width="4" height="4" fill="#0F0F11"/><rect x="628" y="124" width="4" height="4" fill="#0F0F11"/><rect x="632" y="124" width="4" height="4" fill="#0F0F11"/><rect x="636" y="124" width="4" height="4" fill="#0F0F11"/><rect x="644" y="100" width="4" height="4" fill="#0F0F11"/><rect x="648" y="100" width="4" height="4" fill="#0F0F11"/><rect x="652" y="100" width="4" height="4" fill="#0F0F11"/><rect x="656" y="100" width="4" height="4" fill="#0F0F11"/><rect x="660" y="100" width="4" height="4" fill="#0F0F11"/><rect x="644" y="104" width="4" height="4" fill="#0F0F11"/><rect x="644" y="108" width="4" height="4" fill="#0F0F11"/><rect x="644" y="112" width="4" height="4" fill="#0F0F11"/><rect x="648" y="112" width="4" height="4" fill="#0F0F11"/><rect x="652" y="112" width="4" height="4" fill="#0F0F11"/><rect x="656" y="112" width="4" height="4" fill="#0F0F11"/><rect x="644" y="116" width="4" height="4" fill="#0F0F11"/><rect x="644" y="120" width="4" height="4" fill="#0F0F11"/><rect x="644" y="124" width="4" height="4" fill="#0F0F11"/><rect x="648" y="124" width="4" height="4" fill="#0F0F11"/><rect x="652" y="124" width="4" height="4" fill="#0F0F11"/><rect x="656" y="124" width="4" height="4" fill="#0F0F11"/><rect x="660" y="124" width="4" height="4" fill="#0F0F11"/></svg>