<svg xmlns="http://www.w3.org/2000/svg" viewBox="0 0 556 252" shape-rendering="crispEdges" style="image-rendering:pixelated;display:block"><rect x="244" y="52" width="4" height="4" fill="#0F0F11"/><rect x="248" y="52" width="4" height="4" fill="#0F0F11"/><rect x="252" y="52" width="4" height="4" fill="#0F0F11"/><rect x="256" y="52" width="4" height="4" fill="#0F0F11"/><rect x="260" y="52" width="4" height="4" fill="#0F0F11"/><rect x="264" y="52" width="4" height="4" fill="#0F0F11"/><rect x="268" y="52" width="4" height="4" fill="#0F0F11"/><rect x="272" y="52" width="4" height="4" fill="#0F0F11"/><rect x="240" y="56" width="4" height="4" fill="#0F0F11"/><rect x="268" y="56" width="4" height="4" fill="#0F0F11"/><rect x="276" y="56" width="4" height="4" fill="#0F0F11"/><rect x="236" y="60" width="4" height="4" fill="#0F0F11"/><rect x="264" y="60" width="4" height="4" fill="#0F0F11"/><rect x="272" y="60" width="4" height="4" fill="#0F0F11"/><rect x="276" y="60" width="4" height="4" fill="#0F0F11"/><rect x="232" y="64" width="4" height="4" fill="#0F0F11"/><rect x="236" y="64" width="4" height="4" fill="#0F0F11"/><rect x="240" y="64" width="4" height="4" fill="#0F0F11"/><rect x="244" y="64" width="4" height="4" fill="#0F0F11"/><rect x="248" y="64" width="4" height="4" fill="#0F0F11"/><rect x="252" y="64" width="4" height="4" fill="#0F0F11"/><rect x="256" y="64" width="4" height="4" fill="#0F0F11"/><rect x="260" y="64" width="4" height="4" fill="#0F0F11"/><rect x="268" y="64" width="4" height="4" fill="#0F0F11"/><rect x="276" y="64" width="4" height="4" fill="#0F0F11"/><rect x="232" y="68" width="4" height="4" fill="#0F0F11"/><rect x="236" y="68" width="4" height="4" fill="#0F0F11"/><rect x="240" y="68" width="4" height="4" fill="#0F0F11"/><rect x="244" y="68" width="4" height="4" fill="#0F0F11"/><rect x="248" y="68" width="4" height="4" fill="#0F0F11"/><rect x="252" y="68" width="4" height="4" fill="#0F0F11"/><rect x="256" y="68" width="4" height="4" fill="#0F0F11"/><rect x="260" y="68" width="4" height="4" fill="#0F0F11"/><rect x="264" y="68" width="4" height="4" fill="#0F0F11"/><rect x="276" y="68" width="4" height="4" fill="#0F0F11"/><rect x="232" y="72" width="4" height="4" fill="#0F0F11"/><rect x="260" y="72" width="4" height="4" fill="#0F0F11"/><rect x="264" y="72" width="4" height="4" fill="#0F0F11"/><rect x="276" y="72" width="4" height="4" fill="#0F0F11"/><rect x="232" y="76" width="4" height="4" fill="#0F0F11"/><rect x="260" y="76" width="4" height="4" fill="#0F0F11"/><rect x="264" y="76" width="4" height="4" fill="#0F0F11"/><rect x="276" y="76" width="4" height="4" fill="#0F0F11"/><rect x="232" y="80" width="4" height="4" fill="#0F0F11"/><rect x="260" y="80" width="4" height="4" fill="#0F0F11"/><rect x="264" y="80" width="4" height="4" fill="#0F0F11"/><rect x="276" y="80" width="4" height="4" fill="#0F0F11"/><rect x="232" y="84" width="4" height="4" fill="#0F0F11"/><rect x="260" y="84" width="4" height="4" fill="#0F0F11"/><rect x="264" y="84" width="4" height="4" fill="#0F0F11"/><rect x="276" y="84" width="4" height="4" fill="#0F0F11"/><rect x="232" y="88" width="4" height="4" fill="#0F0F11"/><rect x="260" y="88" width="4" height="4" fill="#0F0F11"/><rect x="264" y="88" width="4" height="4" fill="#0F0F11"/><rect x="272" y="88" width="4" height="4" fill="#0F0F11"/><rect x="232" y="92" width="4" height="4" fill="#0F0F11"/><rect x="260" y="92" width="4" height="4" fill="#0F0F11"/><rect x="264" y="92" width="4" height="4" fill="#0F0F11"/><rect x="268" y="92" width="4" height="4" fill="#0F0F11"/><rect x="232" y="96" width="4" height="4" fill="#0F0F11"/><rect x="236" y="96" width="4" height="4" fill="#0F0F11"/><rect x="240" y="96" width="4" height="4" fill="#0F0F11"/><rect x="244" y="96" width="4" height="4" fill="#0F0F11"/><rect x="248" y="96" width="4" height="4" fill="#0F0F11"/><rect x="252" y="96" width="4" height="4" fill="#0F0F11"/><rect x="256" y="96" width="4" height="4" fill="#0F0F11"/><rect x="260" y="96" width="4" height="4" fill="#0F0F11"/><rect x="264" y="96" width="4" height="4" fill="#0F0F11"/><rect x="288" y="52" width="4" height="4" fill="#0F0F11"/><rect x="292" y="52" width="4" height="4" fill="#0F0F11"/><rect x="296" y="52" width="4" height="4" fill="#0F0F11"/><rect x="300" y="52" width="4" height="4" fill="#0F0F11"/><rect x="304" y="52" width="4" height="4" fill="#0F0F11"/><rect x="308" y="52" width="4" height="4" fill="#0F0F11"/><rect x="312" y="52" width="4" height="4" fill="#0F0F11"/><rect x="316" y="52" width="4" height="4" fill="#0F0F11"/><rect x="284" y="56" width="4" height="4" fill="#0F0F11"/><rect x="312" y="56" width="4" height="4" fill="#0F0F11"/><rect x="320" y="56" width="4" height="4" fill="#0F0F11"/><rect x="280" y="60" width="4" height="4" fill="#0F0F11"/><rect x="308" y="60" width="4" height="4" fill="#0F0F11"/><rect x="316" y="60" width="4" height="4" fill="#0F0F11"/><rect x="320" y="60" width="4" height="4" fill="#0F0F11"/><rect x="276" y="64" width="4" height="4" fill="#0F0F11"/><rect x="280" y="64" width="4" height="4" fill="#0F0F11"/><rect x="284" y="64" width="4" height="4" fill="#0F0F11"/><rect x="288" y="64" width="4" height="4" fill="#0F0F11"/><rect x="292" y="64" width="4" height="4" fill="#0F0F11"/><rect x="296" y="64" width="4" height="4" fill="#0F0F11"/><rect x="300" y="64" width="4" height="4" fill="#0F0F11"/><rect x="304" y="64" width="4" height="4" fill="#0F0F11"/><rect x="312" y="64" width="4" height="4" fill="#0F0F11"/><rect x="320" y="64" width="4" height="4" fill="#0F0F11"/><rect x="276" y="68" width="4" height="4" fill="#0F0F11"/><rect x="280" y="68" width="4" height="4" fill="#0F0F11"/><rect x="284" y="68" width="4" height="4" fill="#0F0F11"/><rect x="288" y="68" width="4" height="4" fill="#0F0F11"/><rect x="292" y="68" width="4" height="4" fill="#0F0F11"/><rect x="296" y="68" width="4" height="4" fill="#0F0F11"/><rect x="300" y="68" width="4" height="4" fill="#0F0F11"/><rect x="304" y="68" width="4" height="4" fill="#0F0F11"/><rect x="308" y="68" width="4" height="4" fill="#0F0F11"/><rect x="320" y="68" width="4" height="4" fill="#0F0F11"/><rect x="276" y="72" width="4" height="4" fill="#0F0F11"/><rect x="304" y="72" width="4" height="4" fill="#0F0F11"/><rect x="308" y="72" width="4" height="4" fill="#0F0F11"/><rect x="320" y="72" width="4" height="4" fill="#0F0F11"/><rect x="276" y="76" width="4" height="4" fill="#0F0F11"/><rect x="304" y="76" width="4" height="4" fill="#0F0F11"/><rect x="308" y="76" width="4" height="4" fill="#0F0F11"/><rect x="320" y="76" width="4" height="4" fill="#0F0F11"/><rect x="276" y="80" width="4" height="4" fill="#0F0F11"/><rect x="304" y="80" width="4" height="4" fill="#0F0F11"/><rect x="308" y="80" width="4" height="4" fill="#0F0F11"/><rect x="320" y="80" width="4" height="4" fill="#0F0F11"/><rect x="276" y="84" width="4" height="4" fill="#0F0F11"/><rect x="304" y="84" width="4" height="4" fill="#0F0F11"/><rect x="308" y="84" width="4" height="4" fill="#0F0F11"/><rect x="320" y="84" width="4" height="4" fill="#0F0F11"/><rect x="276" y="88" width="4" height="4" fill="#0F0F11"/><rect x="304" y="88" width="4" height="4" fill="#0F0F11"/><rect x="308" y="88" width="4" height="4" fill="#0F0F11"/><rect x="316" y="88" width="4" height="4" fill="#0F0F11"/><rect x="276" y="92" width="4" height="4" fill="#0F0F11"/><rect x="304" y="92" width="4" height="4" fill="#0F0F11"/><rect x="308" y="92" width="4" height="4" fill="#0F0F11"/><rect x="312" y="92" width="4" height="4" fill="#0F0F11"/><rect x="276" y="96" width="4" height="4" fill="#0F0F11"/><rect x="280" y="96" width="4" height="4" fill="#0F0F11"/><rect x="284" y="96" width="4" height="4" fill="#0F0F11"/><rect x="288" y="96" width="4" height="4" fill="#0F0F11"/><rect x="292" y="96" width="4" height="4" fill="#0F0F11"/><rect x="296" y="96" width="4" height="4" fill="#0F0F11"/><rect x="300" y="96" width="4" height="4" fill="#0F0F11"/><rect x="304" y="96" width="4" height="4" fill="#0F0F11"/><rect x="308" y="96" width="4" height="4" fill="#0F0F11"/><rect x="264" y="8" width="4" height="4" fill="#0F0F11"/><rect x="268" y="8" width="4" height="4" fill="#0F0F11"/><rect x="272" y="8" width="4" height="4" fill="#0F0F11"/><rect x="276" y="8" width="4" height="4" fill="#0F0F11"/><rect x="280" y="8" width="4" height="4" fill="#0F0F11"/><rect x="284" y="8" width="4" height="4" fill="#0F0F11"/><rect x="288" y="8" width="4" height="4" fill="#0F0F11"/><rect x="292" y="8" width="4" height="4" fill="#0F0F11"/><rect x="260" y="12" width="4" height="4" fill="#0F0F11"/><rect x="264" y="12" width="4" height="4" fill="#FFC107"/><rect x="268" y="12" width="4" height="4" fill="#FFC107"/><rect x="272" y="12" width="4" height="4" fill="#FFC107"/><rect x="276" y="12" width="4" height="4" fill="#FFC107"/><rect x="280" y="12" width="4" height="4" fill="#FFC107"/><rect x="284" y="12" width="4" height="4" fill="#FFC107"/><rect x="288" y="12" width="4" height="4" fill="#0F0F11"/><rect x="296" y="12" width="4" height="4" fill="#0F0F11"/><rect x="256" y="16" width="4" height="4" fill="#0F0F11"/><rect x="260" y="16" width="4" height="4" fill="#FFC107"/><rect x="264" y="16" width="4" height="4" fill="#FFC107"/><rect x="268" y="16" width="4" height="4" fill="#FFC107"/><rect x="272" y="16" width="4" height="4" fill="#FFC107"/><rect x="276" y="16" width="4" height="4" fill="#FFC107"/><rect x="280" y="16" width="4" height="4" fill="#FFC107"/><rect x="284" y="16" width="4" height="4" fill="#0F0F11"/><rect x="292" y="16" width="4" height="4" fill="#0F0F11"/><rect x="296" y="16" width="4" height="4" fill="#0F0F11"/><rect x="252" y="20" width="4" height="4" fill="#0F0F11"/><rect x="256" y="20" width="4" height="4" fill="#0F0F11"/><rect x="260" y="20" width="4" height="4" fill="#0F0F11"/><rect x="264" y="20" width="4" height="4" fill="#0F0F11"/><rect x="268" y="20" width="4" height="4" fill="#0F0F11"/><rect x="272" y="20" width="4" height="4" fill="#0F0F11"/><rect x="276" y="20" width="4" height="4" fill="#0F0F11"/><rect x="280" y="20" width="4" height="4" fill="#0F0F11"/><rect x="288" y="20" width="4" height="4" fill="#0F0F11"/><rect x="296" y="20" width="4" height="4" fill="#0F0F11"/><rect x="252" y="24" width="4" height="4" fill="#0F0F11"/><rect x="256" y="24" width="4" height="4" fill="#0F0F11"/><rect x="260" y="24" width="4" height="4" fill="#0F0F11"/><rect x="264" y="24" width="4" height="4" fill="#0F0F11"/><rect x="268" y="24" width="4" height="4" fill="#0F0F11"/><rect x="272" y="24" width="4" height="4" fill="#0F0F11"/><rect x="276" y="24" width="4" height="4" fill="#0F0F11"/><rect x="280" y="24" width="4" height="4" fill="#0F0F11"/><rect x="284" y="24" width="4" height="4" fill="#0F0F11"/><rect x="296" y="24" width="4" height="4" fill="#0F0F11"/><rect x="252" y="28" width="4" height="4" fill="#0F0F11"/><rect x="280" y="28" width="4" height="4" fill="#0F0F11"/><rect x="284" y="28" width="4" height="4" fill="#0F0F11"/><rect x="296" y="28" width="4" height="4" fill="#0F0F11"/><rect x="252" y="32" width="4" height="4" fill="#0F0F11"/><rect x="280" y="32" width="4" height="4" fill="#0F0F11"/><rect x="284" y="32" width="4" height="4" fill="#0F0F11"/><rect x="296" y="32" width="4" height="4" fill="#0F0F11"/><rect x="252" y="36" width="4" height="4" fill="#0F0F11"/><rect x="280" y="36" width="4" height="4" fill="#0F0F11"/><rect x="284" y="36" width="4" height="4" fill="#0F0F11"/><rect x="296" y="36" width="4" height="4" fill="#0F0F11"/><rect x="252" y="40" width="4" height="4" fill="#0F0F11"/><rect x="280" y="40" width="4" height="4" fill="#0F0F11"/><rect x="284" y="40" width="4" height="4" fill="#0F0F11"/><rect x="296" y="40" width="4" height="4" fill="#0F0F11"/><rect x="252" y="44" width="4" height="4" fill="#0F0F11"/><rect x="280" y="44" width="4" height="4" fill="#0F0F11"/><rect x="284" y="44" width="4" height="4" fill="#0F0F11"/><rect x="292" y="44" width="4" height="4" fill="#0F0F11"/><rect x="252" y="48" width="4" height="4" fill="#0F0F11"/><rect x="280" y="48" width="4" height="4" fill="#0F0F11"/><rect x="284" y="48" width="4" height="4" fill="#0F0F11"/><rect x="288" y="48" width="4" height="4" fill="#0F0F11"/><rect x="252" y="52" width="4" height="4" fill="#0F0F11"/><rect x="256" y="52" width="4" height="4" fill="#0F0F11"/><rect x="260" y="52" width="4" height="4" fill="#0F0F11"/><rect x="264" y="52" width="4" height="4" fill="#0F0F11"/><rect x="268" y="52" width="4" height="4" fill="#0F0F11"/><rect x="272" y="52" width="4" height="4" fill="#0F0F11"/><rect x="276" y="52" width="4" height="4" fill="#0F0F11"/><rect x="280" y="52" width="4" height="4" fill="#0F0F11"/><rect x="284" y="52" width="4" height="4" fill="#0F0F11"/><rect x="64" y="124" width="8" height="8" fill="#0F0F11"/><rect x="72" y="124" width="8" height="8" fill="#0F0F11"/><rect x="80" y="124" width="8" height="8" fill="#0F0F11"/><rect x="88" y="124" width="8" height="8" fill="#0F0F11"/><rect x="96" y="132" width="8" height="8" fill="#0F0F11"/><rect x="96" y="140" width="8" height="8" fill="#0F0F11"/><rect x="72" y="148" width="8" height="8" fill="#0F0F11"/><rect x="80" y="148" width="8" height="8" fill="#0F0F11"/><rect x="88" y="148" width="8" height="8" fill="#0F0F11"/><rect x="96" y="156" width="8" height="8" fill="#0F0F11"/><rect x="96" y="164" width="8" height="8" fill="#0F0F11"/><rect x="64" y="172" width="8" height="8" fill="#0F0F11"/><rect x="72" y="172" width="8" height="8" fill="#0F0F11"/><rect x="80" y="172" width="8" height="8" fill="#0F0F11"/><rect x="88" y="172" width="8" height="8" fill="#0F0F11"/><rect x="112" y="124" width="8" height="8" fill="#0F0F11"/><rect x="120" y="124" width="8" height="8" fill="#0F0F11"/><rect x="128" y="124" width="8" height="8" fill="#0F0F11"/><rect x="136" y="124" width="8" height="8" fill="#0F0F11"/><rect x="112" y="132" width="8" height="8" fill="#0F0F11"/><rect x="144" y="132" width="8" height="8" fill="#0F0F11"/><rect x="112" y="140" width="8" height="8" fill="#0F0F11"/><rect x="144" y="140" width="8" height="8" fill="#0F0F11"/><rect x="112" y="148" width="8" height="8" fill="#0F0F11"/><rect x="144" y="148" width="8" height="8" fill="#0F0F11"/><rect x="112" y="156" width="8" height="8" fill="#0F0F11"/><rect x="144" y="156" width="8" height="8" fill="#0F0F11"/><rect x="112" y="164" width="8" height="8" fill="#0F0F11"/><rect x="144" y="164" width="8" height="8" fill="#0F0F11"/><rect x="112" y="172" width="8" height="8" fill="#0F0F11"/><rect x="120" y="172" width="8" height="8" fill="#0F0F11"/><rect x="128" y="172" width="8" height="8" fill="#0F0F11"/><rect x="136" y="172" width="8" height="8" fill="#0F0F11"/><rect x="208" y="124" width="8" height="8" fill="#0F0F11"/><rect x="216" y="124" width="8" height="8" fill="#0F0F11"/><rect x="224" y="124" width="8" height="8" fill="#0F0F11"/><rect x="232" y="124" width="8" height="8" fill="#0F0F11"/><rect x="240" y="124" width="8" height="8" fill="#0F0F11"/><rect x="224" y="132" width="8" height="8" fill="#0F0F11"/><rect x="224" y="140" width="8" height="8" fill="#0F0F11"/><rect x="224" y="148" width="8" height="8" fill="#0F0F11"/><rect x="224" y="156" width="8" height="8" fill="#0F0F11"/><rect x="224" y="164" width="8" height="8" fill="#0F0F11"/><rect x="224" y="172" width="8" height="8" fill="#0F0F11"/><rect x="256" y="124" width="8" height="8" fill="#0F0F11"/><rect x="264" y="124" width="8" height="8" fill="#0F0F11"/><rect x="272" y="124" width="8" height="8" fill="#0F0F11"/><rect x="280" y="124" width="8" height="8" fill="#0F0F11"/><rect x="288" y="124" width="8" height="8" fill="#0F0F11"/><rect x="272" y="132" width="8" height="8" fill="#0F0F11"/><rect x="272" y="140" width="8" height="8" fill="#0F0F11"/><rect x="272" y="148" width="8" height="8" fill="#0F0F11"/><rect x="272" y="156" width="8" height="8" fill="#0F0F11"/><rect x="272" y="164" width="8" height="8" fill="#0F0F11"/><rect x="256" y="172" width="8" height="8" fill="#0F0F11"/><rect x="264" y="172" width="8" height="8" fill="#0F0F11"/><rect x="272" y="172" width="8" height="8" fill="#0F0F11"/><rect x="280" y="172" width="8" height="8" fill="#0F0F11"/><rect x="288" y="172" width="8" height="8" fill="#0F0F11"/><rect x="304" y="124" width="8" height="8" fill="#0F0F11"/><rect x="312" y="124" width="8" height="8" fill="#0F0F11"/><rect x="320" y="124" width="8" height="8" fill="#0F0F11"/><rect x="328" y="124" width="8" height="8" fill="#0F0F11"/><rect x="336" y="124" width="8" height="8" fill="#0F0F11"/><rect x="320" y="132" width="8" height="8" fill="#0F0F11"/><rect x="320" y="140" width="8" height="8" fill="#0F0F11"/><rect x="320" y="148" width="8" height="8" fill="#0F0F11"/><rect x="320" y="156" width="8" height="8" fill="#0F0F11"/><rect x="320" y="164" width="8" height="8" fill="#0F0F11"/><rect x="320" y="172" width="8" height="8" fill="#0F0F11"/><rect x="360" y="124" width="8" height="8" fill="#0F0F11"/><rect x="368" y="124" width="8" height="8" fill="#0F0F11"/><rect x="376" y="124" width="8" height="8" fill="#0F0F11"/><rect x="352" y="132" width="8" height="8" fill="#0F0F11"/><rect x="384" y="132" width="8" height="8" fill="#0F0F11"/><rect x="352" y="140" width="8" height="8" fill="#0F0F11"/><rect x="384" y="140" width="8" height="8" fill="#0F0F11"/><rect x="352" y="148" width="8" height="8" fill="#0F0F11"/><rect x="360" y="148" width="8" height="8" fill="#0F0F11"/><rect x="368" y="148" width="8" height="8" fill="#0F0F11"/><rect x="376" y="148" width="8" height="8" fill="#0F0F11"/><rect x="384" y="148" width="8" height="8" fill="#0F0F11"/><rect x="352" y="156" width="8" height="8" fill="#0F0F11"/><rect x="384" y="156" width="8" height="8" fill="#0F0F11"/><rect x="352" y="164" width="8" height="8" fill="#0F0F11"/><rect x="384" y="164" width="8" height="8" fill="#0F0F11"/><rect x="352" y="172" width="8" height="8" fill="#0F0F11"/><rect x="384" y="172" width="8" height="8" fill="#0F0F11"/><rect x="400" y="124" width="8" height="8" fill="#0F0F11"/><rect x="432" y="124" width="8" height="8" fill="#0F0F11"/><rect x="400" y="132" width="8" height="8" fill="#0F0F11"/><rect x="408" y="132" width="8" height="8" fill="#0F0F11"/><rect x="432" y="132" width="8" height="8" fill="#0F0F11"/><rect x="400" y="140" width="8" height="8" fill="#0F0F11"/><rect x="416" y="140" width="8" height="8" fill="#0F0F11"/><rect x="432" y="140" width="8" height="8" fill="#0F0F11"/><rect x="400" y="148" width="8" height="8" fill="#0F0F11"/><rect x="424" y="148" width="8" height="8" fill="#0F0F11"/><rect x="432" y="148" width="8" height="8" fill="#0F0F11"/><rect x="400" y="156" width="8" height="8" fill="#0F0F11"/><rect x="432" y="156" width="8" height="8" fill="#0F0F11"/><rect x="400" y="164" width="8" height="8" fill="#0F0F11"/><rect x="432" y="164" width="8" height="8" fill="#0F0F11"/><rect x="400" y="172" width="8" height="8" fill="#0F0F11"/><rect x="432" y="172" width="8" height="8" fill="#0F0F11"/><rect x="456" y="124" width="8" height="8" fill="#0F0F11"/><rect x="464" y="124" width="8" height="8" fill="#0F0F11"/><rect x="472" y="124" width="8" height="8" fill="#0F0F11"/><rect x="480" y="124" width="8" height="8" fill="#0F0F11"/><rect x="448" y="132" width="8" height="8" fill="#0F0F11"/><rect x="448" y="140" width="8" height="8" fill="#0F0F11"/><rect x="456" y="148" width="8" height="8" fill="#0F0F11"/><rect x="464" y="148" width="8" height="8" fill="#0F0F11"/><rect x="472" y="148" width="8" height="8" fill="#0F0F11"/><rect x="480" y="156" width="8" height="8" fill="#0F0F11"/><rect x="480" y="164" width="8" height="8" fill="#0F0F11"/><rect x="448" y="172" width="8" height="8" fill="#0F0F11"/><rect x="456" y="172" width="8" height="8" fill="#0F0F11"/><rect x="464" y="172" width="8" height="8" fill="#0F0F11"/><rect x="472" y="172" width="8" height="8" fill="#0F0F11"/><rect x="64" y="192" width="424" height="4" fill="#FFC107"/><rect x="20" y="208" width="4" height="4" fill="#0F0F11"/><rect x="24" y="208" width="4" height="4" fill="#0F0F11"/><rect x="28" y="208" width="4" height="4" fill="#0F0F11"/><rect x="16" y="212" width="4" height="4" fill="#0F0F11"/><rect x="32" y="212" width="4" height="4" fill="#0F0F11"/><rect x="16" y="216" width="4" height="4" fill="#0F0F11"/><rect x="32" y="216" width="4" height="4" fill="#0F0F11"/><rect x="16" y="220" width="4" height="4" fill="#0F0F11"/><rect x="20" y="220" width="4" height="4" fill="#0F0F11"/><rect x="24" y="220" width="4" height="4" fill="#0F0F11"/><rect x="28" y="220" width="4" height="4" fill="#0F0F11"/><rect x="32" y="220" width="4" height="4" fill="#0F0F11"/><rect x="16" y="224" width="4" height="4" fill="#0F0F11"/><rect x="32" y="224" width="4" height="4" fill="#0F0F11"/><rect x="16" y="228" width="4" height="4" fill="#0F0F11"/><rect x="32" y="228" width="4" height="4" fill="#0F0F11"/><rect x="16" y="232" width="4" height="4" fill="#0F0F11"/><rect x="32" y="232" width="4" height="4" fill="#0F0F11"/><rect x="64" y="208" width="4" height="4" fill="#0F0F11"/><rect x="68" y="208" width="4" height="4" fill="#0F0F11"/><rect x="72" y="208" width="4" height="4" fill="#0F0F11"/><rect x="76" y="208" width="4" height="4" fill="#0F0F11"/><rect x="80" y="212" width="4" height="4" fill="#0F0F11"/><rect x="80" y="216" width="4" height="4" fill="#0F0F11"/><rect x="68" y="220" width="4" height="4" fill="#0F0F11"/><rect x="72" y="220" width="4" height="4" fill="#0F0F11"/><rect x="76" y="220" width="4" height="4" fill="#0F0F11"/><rect x="80" y="224" width="4" height="4" fill="#0F0F11"/><rect x="80" y="228" width="4" height="4" fill="#0F0F11"/><rect x="64" y="232" width="4" height="4" fill="#0F0F11"/><rect x="68" y="232" width="4" height="4" fill="#0F0F11"/><rect x="72" y="232" width="4" height="4" fill="#0F0F11"/><rect x="76" y="232" width="4" height="4" fill="#0F0F11"/><rect x="88" y="208" width="4" height="4" fill="#0F0F11"/><rect x="92" y="208" width="4" height="4" fill="#0F0F11"/><rect x="96" y="208" width="4" height="4" fill="#0F0F11"/><rect x="100" y="208" width="4" height="4" fill="#0F0F11"/><rect x="88" y="212" width="4" height="4" fill="#0F0F11"/><rect x="104" y="212" width="4" height="4" fill="#0F0F11"/><rect x="88" y="216" width="4" height="4" fill="#0F0F11"/><rect x="104" y="216" width="4" height="4" fill="#0F0F11"/><rect x="88" y="220" width="4" height="4" fill="#0F0F11"/><rect x="104" y="220" width="4" height="4" fill="#0F0F11"/><rect x="88" y="224" width="4" height="4" fill="#0F0F11"/><rect x="104" y="224" width="4" height="4" fill="#0F0F11"/><rect x="88" y="228" width="4" height="4" fill="#0F0F11"/><rect x="104" y="228" width="4" height="4" fill="#0F0F11"/><rect x="88" y="232" width="4" height="4" fill="#0F0F11"/><rect x="92" y="232" width="4" height="4" fill="#0F0F11"/><rect x="96" y="232" width="4" height="4" fill="#0F0F11"/><rect x="100" y="232" width="4" height="4" fill="#0F0F11"/><rect x="136" y="208" width="4" height="4" fill="#0F0F11"/><rect x="152" y="208" width="4" height="4" fill="#0F0F11"/><rect x="136" y="212" width="4" height="4" fill="#0F0F11"/><rect x="140" y="212" width="4" height="4" fill="#0F0F11"/><rect x="148" y="212" width="4" height="4" fill="#0F0F11"/><rect x="152" y="212" width="4" height="4" fill="#0F0F11"/><rect x="136" y="216" width="4" height="4" fill="#0F0F11"/><rect x="144" y="216" width="4" height="4" fill="#0F0F11"/><rect x="152" y="216" width="4" height="4" fill="#0F0F11"/><rect x="136" y="220" width="4" height="4" fill="#0F0F11"/><rect x="152" y="220" width="4" height="4" fill="#0F0F11"/><rect x="136" y="224" width="4" height="4" fill="#0F0F11"/><rect x="152" y="224" width="4" height="4" fill="#0F0F11"/><rect x="136" y="228" width="4" height="4" fill="#0F0F11"/><rect x="152" y="228" width="4" height="4" fill="#0F0F11"/><rect x="136" y="232" width="4" height="4" fill="#0F0F11"/><rect x="152" y="232" width="4" height="4" fill="#0F0F11"/><rect x="164" y="208" width="4" height="4" fill="#0F0F11"/><rect x="168" y="208" width="4" height="4" fill="#0F0F11"/><rect x="172" y="208" width="4" height="4" fill="#0F0F11"/><rect x="160" y="212" width="4" height="4" fill="#0F0F11"/><rect x="176" y="212" width="4" height="4" fill="#0F0F11"/><rect x="160" y="216" width="4" height="4" fill="#0F0F11"/><rect x="176" y="216" width="4" height="4" fill="#0F0F11"/><rect x="160" y="220" width="4" height="4" fill="#0F0F11"/><rect x="176" y="220" width="4" height="4" fill="#0F0F11"/><rect x="160" y="224" width="4" height="4" fill="#0F0F11"/><rect x="176" y="224" width="4" height="4" fill="#0F0F11"/><rect x="160" y="228" width="4" height="4" fill="#0F0F11"/><rect x="176" y="228" width="4" height="4" fill="#0F0F11"/><rect x="164" y="232" width="4" height="4" fill="#0F0F11"/><rect x="168" y="232" width="4" height="4" fill="#0F0F11"/><rect x="172" y="232" width="4" height="4" fill="#0F0F11"/><rect x="184" y="208" width="4" height="4" fill="#0F0F11"/><rect x="188" y="208" width="4" height="4" fill="#0F0F11"/><rect x="192" y="208" width="4" height="4" fill="#0F0F11"/><rect x="196" y="208" width="4" height="4" fill="#0F0F11"/><rect x="184" y="212" width="4" height="4" fill="#0F0F11"/><rect x="200" y="212" width="4" height="4" fill="#0F0F11"/><rect x="184" y="216" width="4" height="4" fill="#0F0F11"/><rect x="200" y="216" width="4" height="4" fill="#0F0F11"/><rect x="184" y="220" width="4" height="4" fill="#0F0F11"/><rect x="200" y="220" width="4" height="4" fill="#0F0F11"/><rect x="184" y="224" width="4" height="4" fill="#0F0F11"/><rect x="200" y="224" width="4" height="4" fill="#0F0F11"/><rect x="184" y="228" width="4" height="4" fill="#0F0F11"/><rect x="200" y="228" width="4" height="4" fill="#0F0F11"/><rect x="184" y="232" width="4" height="4" fill="#0F0F11"/><rect x="188" y="232" width="4" height="4" fill="#0F0F11"/><rect x="192" y="232" width="4" height="4" fill="#0F0F11"/><rect x="196" y="232" width="4" height="4" fill="#0F0F11"/><rect x="208" y="208" width="4" height="4" fill="#0F0F11"/><rect x="212" y="208" width="4" height="4" fill="#0F0F11"/><rect x="216" y="208" width="4" height="4" fill="#0F0F11"/><rect x="220" y="208" width="4" height="4" fill="#0F0F11"/><rect x="224" y="208" width="4" height="4" fill="#0F0F11"/><rect x="208" y="212" width="4" height="4" fill="#0F0F11"/><rect x="208" y="216" width="4" height="4" fill="#0F0F11"/><rect x="208" y="220" width="4" height="4" fill="#0F0F11"/><rect x="212" y="220" width="4" height="4" fill="#0F0F11"/><rect x="216" y="220" width="4" height="4" fill="#0F0F11"/><rect x="220" y="220" width="4" height="4" fill="#0F0F11"/><rect x="208" y="224" width="4" height="4" fill="#0F0F11"/><rect x="208" y="228" width="4" height="4" fill="#0F0F11"/><rect x="208" y="232" width="4" height="4" fill="#0F0F11"/><rect x="212" y="232" width="4" height="4" fill="#0F0F11"/><rect x="216" y="232" width="4" height="4" fill="#0F0F11"/><rect x="220" y="232" width="4" height="4" fill="#0F0F11"/><rect x="224" y="232" width="4" height="4" fill="#0F0F11"/><rect x="232" y="208" width="4" height="4" fill="#0F0F11"/><rect x="232" y="212" width="4" height="4" fill="#0F0F11"/><rect x="232" y="216" width="4" height="4" fill="#0F0F11"/><rect x="232" y="220" width="4" height="4" fill="#0F0F11"/><rect x="232" y="224" width="4" height="4" fill="#0F0F11"/><rect x="232" y="228" width="4" height="4" fill="#0F0F11"/><rect x="232" y="232" width="4" height="4" fill="#0F0F11"/><rect x="236" y="232" width="4" height="4" fill="#0F0F11"/><rect x="240" y="232" width="4" height="4" fill="#0F0F11"/><rect x="244" y="232" width="4" height="4" fill="#0F0F11"/><rect x="248" y="232" width="4" height="4" fill="#0F0F11"/><rect x="280" y="208" width="4" height="4" fill="#0F0F11"/><rect x="296" y="208" width="4" height="4" fill="#0F0F11"/><rect x="280" y="212" width="4" height="4" fill="#0F0F11"/><rect x="284" y="212" width="4" height="4" fill="#0F0F11"/><rect x="292" y="212" width="4" height="4" fill="#0F0F11"/><rect x="296" y="212" width="4" height="4" fill="#0F0F11"/><rect x="280" y="216" width="4" height="4" fill="#0F0F11"/><rect x="288" y="216" width="4" height="4" fill="#0F0F11"/><rect x="296" y="216" width="4" height="4" fill="#0F0F11"/><rect x="280" y="220" width="4" height="4" fill="#0F0F11"/><rect x="296" y="220" width="4" height="4" fill="#0F0F11"/><rect x="280" y="224" width="4" height="4" fill="#0F0F11"/><rect x="296" y="224" width="4" height="4" fill="#0F0F11"/><rect x="280" y="228" width="4" height="4" fill="#0F0F11"/><rect x="296" y="228" width="4" height="4" fill="#0F0F11"/><rect x="280" y="232" width="4" height="4" fill="#0F0F11"/><rect x="296" y="232" width="4" height="4" fill="#0F0F11"/><rect x="308" y="208" width="4" height="4" fill="#0F0F11"/><rect x="312" y="208" width="4" height="4" fill="#0F0F11"/><rect x="316" y="208" width="4" height="4" fill="#0F0F11"/><rect x="304" y="212" width="4" height="4" fill="#0F0F11"/><rect x="320" y="212" width="4" height="4" fill="#0F0F11"/><rect x="304" y="216" width="4" height="4" fill="#0F0F11"/><rect x="320" y="216" width="4" height="4" fill="#0F0F11"/><rect x="304" y="220" width="4" height="4" fill="#0F0F11"/><rect x="308" y="220" width="4" height="4" fill="#0F0F11"/><rect x="312" y="220" width="4" height="4" fill="#0F0F11"/><rect x="316" y="220" width="4" height="4" fill="#0F0F11"/><rect x="320" y="220" width="4" height="4" fill="#0F0F11"/><rect x="304" y="224" width="4" height="4" fill="#0F0F11"/><rect x="320" y="224" width="4" height="4" fill="#0F0F11"/><rect x="304" y="228" width="4" height="4" fill="#0F0F11"/><rect x="320" y="228" width="4" height="4" fill="#0F0F11"/><rect x="304" y="232" width="4" height="4" fill="#0F0F11"/><rect x="320" y="232" width="4" height="4" fill="#0F0F11"/><rect x="328" y="208" width="4" height="4" fill="#0F0F11"/><rect x="332" y="208" width="4" height="4" fill="#0F0F11"/><rect x="336" y="208" width="4" height="4" fill="#0F0F11"/><rect x="340" y="208" width="4" height="4" fill="#0F0F11"/><rect x="328" y="212" width="4" height="4" fill="#0F0F11"/><rect x="344" y="212" width="4" height="4" fill="#0F0F11"/><rect x="328" y="216" width="4" height="4" fill="#0F0F11"/><rect x="344" y="216" width="4" height="4" fill="#0F0F11"/><rect x="328" y="220" width="4" height="4" fill="#0F0F11"/><rect x="332" y="220" width="4" height="4" fill="#0F0F11"/><rect x="336" y="220" width="4" height="4" fill="#0F0F11"/><rect x="340" y="220" width="4" height="4" fill="#0F0F11"/><rect x="328" y="224" width="4" height="4" fill="#0F0F11"/><rect x="336" y="224" width="4" height="4" fill="#0F0F11"/><rect x="328" y="228" width="4" height="4" fill="#0F0F11"/><rect x="340" y="228" width="4" height="4" fill="#0F0F11"/><rect x="328" y="232" width="4" height="4" fill="#0F0F11"/><rect x="344" y="232" width="4" height="4" fill="#0F0F11"/><rect x="352" y="208" width="4" height="4" fill="#0F0F11"/><rect x="368" y="208" width="4" height="4" fill="#0F0F11"/><rect x="352" y="212" width="4" height="4" fill="#0F0F11"/><rect x="364" y="212" width="4" height="4" fill="#0F0F11"/><rect x="352" y="216" width="4" height="4" fill="#0F0F11"/><rect x="360" y="216" width="4" height="4" fill="#0F0F11"/><rect x="352" y="220" width="4" height="4" fill="#0F0F11"/><rect x="356" y="220" width="4" height="4" fill="#0F0F11"/><rect x="352" y="224" width="4" height="4" fill="#0F0F11"/><rect x="360" y="224" width="4" height="4" fill="#0F0F11"/><rect x="352" y="228" width="4" height="4" fill="#0F0F11"/><rect x="364" y="228" width="4" height="4" fill="#0F0F11"/><rect x="352" y="232" width="4" height="4" fill="#0F0F11"/><rect x="368" y="232" width="4" height="4" fill="#0F0F11"/><rect x="376" y="208" width="4" height="4" fill="#0F0F11"/><rect x="380" y="208" width="4" height="4" fill="#0F0F11"/><rect x="384" y="208" width="4" height="4" fill="#0F0F11"/><rect x="388" y="208" width="4" height="4" fill="#0F0F11"/><rect x="392" y="208" width="4" height="4" fill="#0F0F11"/><rect x="376" y="212" width="4" height="4" fill="#0F0F11"/><rect x="376" y="216" width="4" height="4" fill="#0F0F11"/><rect x="376" y="220" width="4" height="4" fill="#0F0F11"/><rect x="380" y="220" width="4" height="4" fill="#0F0F11"/><rect x="384" y="220" width="4" height="4" fill="#0F0F11"/><rect x="388" y="220" width="4" height="4" fill="#0F0F11"/><rect x="376" y="224" width="4" height="4" fill="#0F0F11"/><rect x="376" y="228" width="4" height="4" fill="#0F0F11"/><rect x="376" y="232" width="4" height="4" fill="#0F0F11"/><rect x="380" y="232" width="4" height="4" fill="#0F0F11"/><rect x="384" y="232" width="4" height="4" fill="#0F0F11"/><rect x="388" y="232" width="4" height="4" fill="#0F0F11"/><rect x="392" y="232" width="4" height="4" fill="#0F0F11"/><rect x="400" y="208" width="4" height="4" fill="#0F0F11"/><rect x="404" y="208" width="4" height="4" fill="#0F0F11"/><rect x="408" y="208" width="4" height="4" fill="#0F0F11"/><rect x="412" y="208" width="4" height="4" fill="#0F0F11"/><rect x="416" y="208" width="4" height="4" fill="#0F0F11"/><rect x="408" y="212" width="4" height="4" fill="#0F0F11"/><rect x="408" y="216" width="4" height="4" fill="#0F0F11"/><rect x="408" y="220" width="4" height="4" fill="#0F0F11"/><rect x="408" y="224" width="4" height="4" fill="#0F0F11"/><rect x="408" y="228" width="4" height="4" fill="#0F0F11"/><rect x="408" y="232" width="4" height="4" fill="#0F0F11"/><rect x="424" y="208" width="4" height="4" fill="#0F0F11"/><rect x="428" y="208" width="4" height="4" fill="#0F0F11"/><rect x="432" y="208" width="4" height="4" fill="#0F0F11"/><rect x="436" y="208" width="4" height="4" fill="#0F0F11"/><rect x="424" y="212" width="4" height="4" fill="#0F0F11"/><rect x="440" y="212" width="4" height="4" fill="#0F0F11"/><rect x="424" y="216" width="4" height="4" fill="#0F0F11"/><rect x="440" y="216" width="4" height="4" fill="#0F0F11"/><rect x="424" y="220" width="4" height="4" fill="#0F0F11"/><rect x="428" y="220" width="4" height="4" fill="#0F0F11"/><rect x="432" y="220" width="4" height="4" fill="#0F0F11"/><rect x="436" y="220" width="4" height="4" fill="#0F0F11"/><rect x="424" y="224" width="4" height="4" fill="#0F0F11"/><rect x="424" y="228" width="4" height="4" fill="#0F0F11"/><rect x="424" y="232" width="4" height="4" fill="#0F0F11"/><rect x="448" y="208" width="4" height="4" fill="#0F0F11"/><rect x="448" y="212" width="4" height="4" fill="#0F0F11"/><rect x="448" y="216" width="4" height="4" fill="#0F0F11"/><rect x="448" y="220" width="4" height="4" fill="#0F0F11"/><rect x="448" y="224" width="4" height="4" fill="#0F0F11"/><rect x="448" y="228" width="4" height="4" fill="#0F0F11"/><rect x="448" y="232" width="4" height="4" fill="#0F0F11"/><rect x="452" y="232" width="4" height="4" fill="#0F0F11"/><rect x="456" y="232" width="4" height="4" fill="#0F0F11"/><rect x="460" y="232" width="4" height="4" fill="#0F0F11"/><rect x="464" y="232" width="4" height="4" fill="#0F0F11"/><rect x="476" y="208" width="4" height="4" fill="#0F0F11"/><rect x="480" y="208" width="4" height="4" fill="#0F0F11"/><rect x="484" y="208" width="4" height="4" fill="#0F0F11"/><rect x="472" y="212" width="4" height="4" fill="#0F0F11"/><rect x="488" y="212" width="4" height="4" fill="#0F0F11"/><rect x="472" y="216" width="4" height="4" fill="#0F0F11"/><rect x="488" y="216" width="4" height="4" fill="#0F0F11"/><rect x="472" y="220" width="4" height="4" fill="#0F0F11"/><rect x="476" y="220" width="4" height="4" fill="#0F0F11"/><rect x="480" y="220" width="4" height="4" fill="#0F0F11"/><rect x="484" y="220" width="4" height="4" fill="#0F0F11"/><rect x="488" y="220" width="4" height="4" fill="#0F0F11"/><rect x="472" y="224" width="4" height="4" fill="#0F0F11"/><rect x="488" y="224" width="4" height="4" fill="#0F0F11"/><rect x="472" y="228" width="4" height="4" fill="#0F0F11"/><rect x="488" y="228" width="4" height="4" fill="#0F0F11"/><rect x="472" y="232" width="4" height="4" fill="#0F0F11"/><rect x="488" y="232" width="4" height="4" fill="#0F0F11"/><rect x="500" y="208" width="4" height="4" fill="#0F0F11"/><rect x="504" y="208" width="4" height="4" fill="#0F0F11"/><rect x="508" y="208" width="4" height="4" fill="#0F0F11"/><rect x="512" y="208" width="4" height="4" fill="#0F0F11"/><rect x="496" y="212" width="4" height="4" fill="#0F0F11"/><rect x="496" y="216" width="4" height="4" fill="#0F0F11"/><rect x="496" y="220" width="4" height="4" fill="#0F0F11"/><rect x="496" y="224" width="4" height="4" fill="#0F0F11"/><rect x="496" y="228" width="4" height="4" fill="#0F0F11"/><rect x="500" y="232" width="4" height="4" fill="#0F0F11"/><rect x="504" y="232" width="4" height="4" fill="#0F0F11"/><rect x="508" y="232" width="4" height="4" fill="#0F0F11"/><rect x="512" y="232" width="4" height="4" fill="#0F0F11"/><rect x="520" y="208" width="4" height="4" fill="#0F0F11"/><rect x="524" y="208" width="4" height="4" fill="#0F0F11"/><rect x="528" y="208" width="4" height="4" fill="#0F0F11"/><rect x="532" y="208" width="4" height="4" fill="#0F0F11"/><rect x="536" y="208" width="4" height="4" fill="#0F0F11"/><rect x="520" y="212" width="4" height="4" fill="#0F0F11"/><rect x="520" y="216" width="4" height="4" fill="#0F0F11"/><rect x="520" y="220" width="4" height="4" fill="#0F0F11"/><rect x="524" y="220" width="4" height="4" fill="#0F0F11"/><rect x="528" y="220" width="4" height="4" fill="#0F0F11"/><rect x="532" y="220" width="4" height="4" fill="#0F0F11"/><rect x="520" y="224" width="4" height="4" fill="#0F0F11"/><rect x="520" y="228" width="4" height="4" fill="#0F0F11"/><rect x="520" y="232" width="4" height="4" fill="#0F0F11"/><rect x="524" y="232" width="4" height="4" fill="#0F0F11"/><rect x="528" y="232" width="4" height="4" fill="#0F0F11"/><rect x="532" y="232" width="4" height="4" fill="#0F0F11"/><rect x="536" y="232" width="4" height="4" fill="#0F0F11"/></svg>